<?xml version="1.0" encoding="utf-8"?>
<!-- Generator: Adobe Illustrator 25.2.3, SVG Export Plug-In . SVG Version: 6.00 Build 0)  -->
<svg version="1.1" id="Layer_1" xmlns="http://www.w3.org/2000/svg" xmlns:xlink="http://www.w3.org/1999/xlink" x="0px" y="0px"
	 viewBox="0 0 543.7 541" style="enable-background:new 0 0 543.7 541;" xml:space="preserve">
<style type="text/css">
	.st0{fill:none;stroke:#FFFFFF;stroke-linecap:round;stroke-linejoin:round;}
</style>
<g id="Democratic_Republic_of_the_Congo">
	<path class="st0" d="M183,55l-1-6.6l0.6-3.6v-0.9v-0.4l0.1-0.6l0.6-1l0.2-0.6l0.1-0.7v-1.8l-0.4-2.4l-0.4-1.1l-1-1.9l-0.2-0.6
		l-0.2-0.3l-0.8-0.7l-0.2-0.5l0.1-0.6l0.4-0.8l0.6-0.5h0.5l0.6,0.4l0.6,0.1h0.6l0.6-0.1l1.3-0.5l0.9-0.7l0.7-0.9l1.5-3.6l0.7-1
		l1-0.8l0.3-0.8h0.1l0.1-0.1l0.5-0.2l0.1-0.1l1-1.7l0.5-0.4l0.5-0.3l0.4-0.4l0.2-1.1l0.2-0.2l0.3-0.2l0.2-0.3l0.1-0.3l0.2-0.9
		l0.3-0.7l0.4-0.5l0.7-0.6l0.3-0.3l0.5-0.2h1.3l0.5-0.1l0.5-0.7l0.4-0.7l0.2-0.2l1.3-0.6l2.5-1.6l0.6-0.8l0.4-0.4l0.6-0.2l1.9,0.1
		l0.6-0.1l0.9-0.4l0.6-0.1l1,0.5l3.2,0.1l0.3,0.1l0.6,0.3l0.9,0.2L217,9l0.4,0.3l0.3,0.4l0.2,0.4l0.5,0.8l0.1,0.4l0.3,0.4l0.7,0.3
		l2.5,0.5l0.8,0.5l0.7,0.6l0.9,0.6l1.9,0.7l0.5,0.4l1.3,1.6l0.6,0.5l0.5,0.3l1.3,0.4l0.6,0.1l0.5,0.2l0.4,0.5l0.6,0.9l0.6,1.4
		l0.2,0.2l0.5,0.2l0.6,0.5l0.5,0.6l0.2,0.6l-0.2,0.4l-0.3,0.5l-0.1,0.5l0.3,0.6l0.1,0.1l2.9,2.8l0.6,0.4l0.6,0.2l2.4-0.4h2.3
		l0.7-0.1l0.4-0.2l0.3-0.3l0.4-0.2l1.1-0.1l2.6,0.6l2.7,1l0.5,0.1l0.2,0.2l0.5,1l0.3,0.4l0.7,0.2l0.3,0.2l0.2,0.5l0.2,0.1h0.6
		l0.3,0.1l0.2,0.2l0.2,0.1h0.4l0.3-0.2l0.2-0.2l0.2-0.2l0.2-0.2l0.2-0.2l0.2-0.1l0.3-0.1h0.4l0.3,0.1l0.2,0.2l0.1,0.2l1.4,0.9
		l0.5,0.2l0.6,0.2h0.5l1.2-0.1l0.4,0.1l0.3,0.2l0.2,0.2l0.2,0.1l0.3,0.1h0.6l0.3,0.1l2.7-1.4h0.5l1.1,0.1l1-0.1h0.4l0.6,0.2l0.1,0.1
		l0.1,0.1l0.1,0.1h0.3h0.8h0.3l0.5,0.2l0.4,0.3l0.5,0.3l0.7,0.1l1.7,0.1l0.6-0.1l0.3-0.1l0.1-0.1h0.1h0.3l0.2,0.1l0.8,0.4h0.7
		l1.4,0.3l0.6,0.2l0.1,0.1l0.5,0.5l0.3,0.2l0.6,0.2l0.6,0.4l2.7,0.6l3.4-0.2l0.3-0.1l0.6-0.2l0.2-0.1l1-0.7l0.5-0.5l0.2-0.4l0.1-0.1
		l0.5-0.5l0.2-0.3V33l-0.2-0.6v-0.3l0.8-1.5l0.2-0.3l0.3-0.1l0.3-0.2l0.3-0.3l0.1-0.3l-0.1-0.2l-0.5-0.6l-0.1-0.6l-0.1-0.8l0.2-0.7
		l0.5-0.3h1.3l0.6-0.1l0.4-0.2l0.2-0.3l0.1-0.3v-0.7l0.1-0.2l0.4-0.3l0.1-0.2l0.1-0.2l0.3-0.5l0.1-0.2v-0.3l-0.2-0.6v-0.3l0.4-0.3
		l0.3-0.3l0.2-0.4l0.2-0.4l0.3-1l0.3-0.4l0.5-0.2l0.4,0.2l0.5,0.3l0.5,0.1l0.3-0.8l0.6-0.5l0.2-0.3l-0.2-0.3l-0.1-0.3v-0.3l0.2-0.4
		l0.3-0.3h0.2l0.3,0.1h0.4l0.3-0.1L306,16l0.3-0.1h0.4l0.2,0.2l0.3,0.8l0.3,0.6l0.1,0.4l0.2,0.4l0.3,0.2l0.4,0.1l0.4,0.1l0.3,0.2
		l0.3,0.3l0.6,0.3l0.7-0.1l1.3-0.6l0.4,0.4l0.7,1l0.3,0.2l0.1,0.1l0.8,0.5l0.4,0.8l0.2,0.1l0.6,0.1l0.1,0.1l0.1,0.1l0.3,0.3l0.1,0.1
		h0.6l0.5,0.1l0.5,0.2l0.5,0.3l0.2-0.1h0.5l0.2-0.1l0.1-0.2v-0.2v-0.2v-0.3l0.2-0.5l0.3-0.4l0.5-0.2l0.7-0.1l0.5-0.2l1.7-1.4
		l0.6-0.3l1.3-0.3l1.1-0.6l0.6-0.2l1.3-0.2l0.6-0.2l1.1-0.8l0.5-0.2h0.3l0.6,0.2h0.2l0.3-0.1l0.3-0.3l0.2-0.1l1.2,0.3h0.7v-0.4
		l-0.1-0.3v-0.3l0.1-0.3l0.1-0.2l0.2-0.1l0.2,0.1l0.4,0.4l0.5-0.3l1.5-0.7l0.7-0.6l0.5-0.3l0.5-0.1l0.3,0.1l0.5,0.4l0.4,0.1l0.3-0.1
		l0.8-1l0.5-0.3l0.6-0.1l0.5,0.2l0.2,0.7h0.2l0.2-0.2l0.1-0.2v-0.3l0.1-0.3l0.3-0.8l0.1-0.1l0.3-0.2l2-0.3l0.5-0.3l0.4-0.4V10
		l-0.7-0.1L346,9.7l0.2-0.6l0.4-0.7L347,8l0.1,0.3l0.3,0.8l0.2,0.2l0.4,0.2l0.1-0.2V8.9l0.1-0.3l0.7-0.2l0.6,0.1h0.2l0.8,0.4
		l0.5,0.4l0.2,0.2l0.2,0.5l0.2,0.2l0.3,0.1l0.7,0.1l0.4,0.1l0.3,0.3v0.6l0.2,0.3l0.3,0.2l0.8,0.3l0.4,0.3l-0.4,0.5l-0.1,0.3l0.3,0.1
		l1.9,0.2h0.5l0.5-0.3l0.3,0.3h0.3l0.3-0.3l0.3-0.3l0.2-0.1l0.2,0.1l0.3,0.1h0.3l0.6-0.2l1-0.6l0.6-0.1l0.1-0.1l0.5-0.4l0.2-0.1h0.3
		l1.1,0.3l1,0.5l1,0.3l0.2-0.1l0.2-0.6l0.3-0.6l0.1-0.1l0.3-0.1l0.2-0.2l0.2-0.3h0.3l0.2,0.1l0.2,0.1l0.3,0.1l1.8-0.1l0.3-0.2
		l0.3-0.2l1.2-0.1l0.4-0.1l0.3-0.3l0.1-0.3V9l0.1-0.3l0.4-0.5l0.1-0.2V7.7l0.2-0.6V6.9l-0.2-0.2l-0.6-0.1L373,6.5l-0.2-0.6l0.2-0.5
		l0.4-0.4l0.2-0.4V3.9l0.2-0.6l0.4-0.4l0.6-0.2l-0.4-0.5l0.2-0.2l0.4-0.1l0.3-0.4l0.5,0.3l0.6-0.1l1.3-0.7l0.1-0.1h0.1l0.3,0.3
		l0.3,0.1l0.7-0.3l0.3-0.1l-0.2-0.5l0.3-0.1l0.5,0.1l0.4-0.1h0.2l0.2,0.4L381,1l0.2,0.2h0.6l-0.1,0.1l-0.1,0.1l-0.1,0.1l-0.1,0.1
		v0.2l0.4,0.3L382,2l0.2-0.2l0.3-0.1l0.2,0.1l0.2,0.2l0.1,0.1l0,0l0.6,0.2l0.4,0.3l0.8,0.9l0.3,0.2l0.4,0.2h0.4l0.3-0.4l-0.3-0.2
		l0.7,0.5L387,4l0.1,0.7h0.1l0.3-0.1l0.1-0.1l-0.1,0.4l0.1,0.3l0.1,0.2l0.2,0.6l0.3-0.2l0.3-0.3l0.1-0.2h0.7l0.3,0.4l0.3,0.5
		l0.5,0.4V6l0.4-0.3l0.5-0.1l0.4,0.2V5.3l0.1-0.3l0.3-0.1l0.4,0.1l0.3,0.2l0.5,0.6l0.4,0.3l0.3-0.2l0.4-0.1h0.3h0.1l0.1-0.3l0.2-0.1
		h0.3l0.3,0.1l-0.1-0.2l-0.1-0.7l0.1,0.1l0.1,0.1h0.2h0.2l0.2-0.1l0.2-0.2l0.1-0.3l0.4,0.2l0.2,0.3l0.2,0.2l0.4-0.2l0.1,0.1l0.2,0.1
		l0.1,0.1l0.3-0.3l0.1-0.1l0.3,0.9l0.2,0.2l0.4-0.1v0.1v0.5l0.1-0.1l0.3-0.1l0.1-0.1l0.2,0.5l0.5,0.4l0.5,0.2l0.7,0.1l0.5-0.1h0.5
		l0.3,0.3l0.2-0.1L404,7l0.3,0.4l0.4,0.3L405,8l0.4,0.3l0.5,1.1l0.1,0.2l0.4,0.1l0.8,0.3h0.5l0.2-0.1l0.4-0.1l0.4-0.2l0.2-0.2
		l0.2,0.2l0.3-0.4L410,9l0.5,0.1l0.2,0.3h0.2l0.2-0.3h0.2l0.4,0.1l0.3-0.1l0.4-0.3h0.2h1.4l0.4,0.1l0.2,0.1l1.2,1.2l0.2,0.2h0.2
		l0.3-0.3l0.2-0.1l0.2,0.1l0.2,0.1l0.1,0.1v0.1h0.5l0.2-0.1l0.3-0.3l0.2-0.2l0.3-0.7l-0.1-0.3l0.8-0.9l0.8-0.7l0.9-0.6l1-0.5
		l1.3-0.4l1.2,0.1l1.2,0.4l2.3,1.2l0.7,0.2l0.6,0.1l0.5,0.1l0.4,0.3l0.4,0.3l0.4,0.3l0.2,0.1h0.3h0.5l0.3,0.1l0.4,0.3l0.3,0.1
		l0.8,0.3V10l-0.2,1.3l0.2,0.1l0.2,0.1l0.2,0.1l0.2,0.1l0.9,0.7l0.2,0.3l0.1,0.3l0.1,0.6l0.2,0.3l0.5,0.4l0.6,0.2l2.5,0.3l0.5,0.3
		l0.4,0.7l0.2,1.2l0.2,0.5l0.4,0.3h0.2l0.5-0.2h0.3l0.3,0.2l0.2,0.3l0.2,0.3l0.1,0.3l0.1,0.6L443,21l0.1,1.2l0.1,0.7l0.2,0.5h0.1
		l0.7,0.1l0.2,0.1l0.3,0.2l0.5,0.6l0.3,0.2h0.2l0.8-0.1h0.2l0.5,0.2h0.2l0.1-0.1v-0.1v-0.1l0,0l0.1-0.1l0.3-0.1l0.1,0.1l0.3,0.3h0.2
		h0.3l1.5,0.2l0.1,0.3l-0.1,0.5l-0.1,0.6v0.3v0.2l0.1,0.2l0.1,0.3l0.9,1.2h0.3l0.5-0.5l0.3-0.2h0.5l0.2,0.2l0.1,0.6l0.8,1l0.5,0.5
		l0.5,0.4l1.1,0.1l1.3-0.2l1.2-0.1l1,0.7l0.3,0.6l0.1,0.4l0.2,0.3l0.7,0.2l0.6-0.1l0.6-0.4l0.5-0.5l1-1.6l0.4-0.3l0.6-0.2h0.3
		l0.3,0.1h0.3l0.3-0.1L466,29l0.1-0.3l0.1-0.3l0.3-0.2l1.2-0.3l0.4-0.3l0.4-0.6l1.2-2.3h0.3h0.6l0.4-0.2l0.2-0.2l0.2-0.1l0.4,0.1
		l0.4,0.6v0.6l0.1,0.6l0.7,0.3h0.3l0.9-0.1l1.4,0.1l0.6-0.1l1.7-0.4l0.2,0.2l1.4,0.9l0.3,0.1l0.1,0.4h0.1l1.1,0.5l0.3,0.2l1.8,1.8
		l0.6,0.3l0.7-0.1l0.2-0.5l0.1-0.5l0.3-0.3h0.7l0.6,0.1l0.5-0.1l0.4-0.7l0.3-0.7l0.3-0.4l1.5-1.3l0.4-0.5l0.2-0.6l0.2-0.7l0.2-0.3
		l0.5-0.5l0.1-0.3v-0.3l0.1-0.5l0.1-1l0.2-0.4l0.4-0.1l0.6,0.1l0.1,0.1l0.3,0.3l0.1,0.1l0.4-0.2h0.2l0.3,0.1l0.9,0.4h0.9l0.3,0.1
		l1.2,0.6l0.3,0.2l0.8,0.7l0.4,0.2h0.2l0.6-0.2l0.2,0.1l0.6,0.4l0.3,0.1l0.3,0.2l-0.1,0.3l-0.1,0.2v0.4l-0.2,0.3v0.2l0.2,0.5v0.3
		v0.3l-0.3,0.9v1.2l0.3,1.1l0.8,0.6h1.3l0.6,0.1l0.7,0.4l0.6,0.6l0.3,0.6l-0.1,0.3l-0.2,0.3l-0.2,0.3v0.3l0.2,0.3l0.3,0.1h0.3
		l0.3,0.1l0.7,0.4l0.4,0.5l0.7,1.3l0.4,0.6l0.4,0.3l1.5,0.1l0.7,0.4l0.3,0.6l0.2,0.7l0.3,0.7l0.7,0.8l0.2,0.3l0.1,0.3v0.3v0.3
		l0.2,0.3l0.5,0.2h1.9l1.9,0.6l2.3,1.4L520,44h0.3h0.6h0.3l0.3-0.1h0.3l0.3,0.1l0.4,0.7l0.7,4.2v0.6l-0.2,1.1l-0.2,0.4l-0.2,0.2v0.1
		l0.3,0.2l0.2,0.1h0.3l0.6-0.1l0.4-0.1l0.9-0.5l0.5-0.2h0.3h0.8l0.6-0.3l0.5-0.6l0.4-0.3l0.5,0.4l0.1,0.3l0.1,1l0.2,0.4l0.4,0.3
		l0.9,0.3l0.4,0.5l-0.3,1.5l0.3,0.6l0.6-0.2l0.5-0.5l0.5-0.2l0.4,0.7v0.3l-0.2,0.8V56l0.3,0.6l0.1,0.3l-0.2,0.6l-0.1,0.2l-0.2,0.3
		l-0.8,0.9l-0.6,1l-0.1,0.1v0.3l-0.1,0.1l-0.1,0.1l-0.3,0.1l-0.1,0.1l-0.5,1l-1.2,3.5l-0.4,1.3l-0.1,0.6v0.5l0.3,0.4l1.3,1l0.5,0.5
		l0.7,1.2l0.3,1.1v1.1l-0.7,1.9l-0.2,0.3l-0.1,0.1l-0.3,0.1l-0.1,0.1l-0.1,0.2v0.3V76l-1,2.6l-0.1,0.4v0l-0.1,0.2l-0.6,0.9l-0.1,0.3
		v0.5l0.1,1.1v0.5L528,83l-0.4,0.6l-0.3,0.6l0.1,0.5l0.4,0.1h2l0.3,0.2l0.1,0.3v0.4l0.1,0.4l0.3,0.5l0.5,0.6l0.5,0.5l0.5,0.2
		l0.8-0.4l0.4-0.9l0.5-0.8h1.1l0.5,0.3l1.6,1.8l0.1,0.1l0.1,0.2v0.2l-0.2,0.1l-0.1,0.1l0.1,0.3l0.4,0.2l1.2,0.2h0.4l0.5-0.1l1.4-0.5
		v1.2l0.1,0.6l0.2,0.5l0.6,0.5l1.6,0.9l0.1,0.1l-0.8,0.7l-0.1,0.3v0.3l-0.1,0.3l-0.4,0.1l-0.4,0.1l-0.3,0.1l-0.5,0.5l-0.2,0.3
		l-0.4,0.7l-0.7-0.1l-0.3,0.1l-0.6,0.2l-0.3,0.1l-1.3,0.8l-1.2,1l-0.2,0.2l-0.2,0.3l-0.2,0.2l-0.3,0.2l-0.3,0.1l-0.8,0.1l-1.2,0.6
		l-2.7,3.1l-1.4,1.2l-0.4,0.2l-0.2,0.1l-0.3,0.9l-0.3,0.3l-2,1.2l-0.4,0.5l-0.2,0.6l-0.3,0.6l-0.7,0.4l-1.3,0.6l-0.2,0.3l-0.5,0.7
		l-0.2,0.2l-0.3,0.1L521,111l-0.2,0.4l-0.1,0.3l-0.1,0.6l-0.2,0.6l-0.3,0.6l-0.4,0.6l-0.9,1.8l-0.4,0.1l-0.5,0.3l-0.2,0.4l0.4,0.4
		l-0.1,0.3l-0.1,0.3v0.3v0.3l0.4-0.1l0.4,0.2l0.3,0.4l0.1,0.5l0.1-0.1l0.3-0.3v0.1v0.1l0,0h0.1v-0.9l0.1-0.3l0.2,0.2l0.1,0.3v0.1
		l0.3,0.3l0,0l-0.6,0.5l-0.4,0.3l-0.4,0.2l-0.5,0.1H518l-0.6-0.1H517l-0.5,0.4l-0.3,0.6l-0.3,0.4l-0.5-0.2l-0.3-0.2h-0.3l-0.2,0.1
		l-0.2,0.1l-0.9,0.9l-0.1,0.2l-0.1,0.6l-0.1,0.3l-0.1,0.2l-0.4,0.3v0.6l0.2,1.2l-0.2,0.5l-0.6,0.7L512,127l-0.1,0.1l-0.5,1l-0.3,0.4
		l-0.3,0.2l-3,0.7l-1.2,0.5l-0.4,0.3l-0.6,0.5l-0.4,0.2l-0.5,1.1v0.3l0.2,1.5l-0.3,2.4v0.6l0.5,2.3l0.1,1.1l-0.4,0.9l-0.1,0.2
		l-0.5,0.6l-1.5,1.7l-0.3,0.5l-0.2,0.6l-0.9,4.7l-0.1,0.2l-0.3,0.2l-0.2-0.1l-0.2-0.2l-0.3-0.1l-0.2,0.3l-1.3,1.7l-0.2,0.8v0.5
		l0.3,1.2v0.5l-0.2,0.5l-0.4,1l-0.7,2.9l-0.2,1l-0.5,2.8l-0.1,0.5l-0.6,3.6l0.1,0.5l0.1,0.2l0.3,0.6l0.1,0.4l0.1,1.7l-0.1,0.4
		l-0.2,0.2h-0.3l-0.3,0.1l-0.1,0.3v0.2l0.2,0.3l0.1,0.2v0.2l-0.1,0.1l-0.2,0.1l-0.1,0.1l-0.4,2.2v0.6l0.3,1.1l0.1,0.6l-0.1,1.7
		l-0.1,0.4l-0.3,0.4l-0.8,0.3l-0.3,0.5v0.3v0.3l0.1,0.5v0.4l-0.1,0.3l-0.1,0.2l0,0l-0.1,0.3l0.1,0.5l0.4,1.1l0.1,0.6v0.5l-0.3,1.8
		v0.7l0.2,0.5l0.3,0.4l0.2,0.6v0.2l-0.3,0.7v0.3l0.3,0.6l0.1,0.3v0.5l-0.3,1.7l-1.1,0.4l-1.1,0.8l-1,1l-0.5,0.9l-0.1,0.2l-0.1,0.1
		h-0.1h-0.1l-2.2,0.1l-0.4,0.2l-0.3,0.4l-0.8,1.6l-0.3,0.4l-1.4,1.1l-0.3,0.5l-0.6,1.1l-0.7,1.2l-1.1,1.7l-0.5,1.3l-0.1,1l0.1,1
		l0.8,4.5l0.1,1l-0.2,1.2l-0.4,1.3l-0.7,1.1l-1,0.8l-1.3,0.3h-0.8l-0.2,0.1L478,219v0.2l-0.1,0.3l-0.2,0.4l-0.3,0.5l-0.4,0.4
		l-0.5,0.3l-0.6,0.2l-0.8,0.3l-0.4,0.3l-0.2,0.7l0.1,0.6l0.1,0.6l0.3,0.5l0.1,0.3l-0.5,0.4l-0.1,0.4l0.1,0.4l0.3,0.2l0.3,0.2
		l0.3,0.3l0.2,0.7l-0.2,2.2l0.2,0.2l1.1,0.7l0.4,0.1l0.8,0.1l0.6,0.3l0.4,0.5l0.4,0.7l-0.6,0.1l-0.4,0.3l-0.2,0.5l-0.1,0.6l0.2,0.5
		l0.5,0.1l0.6,0.1l0.4,0.2l0.1,0.2l0.3,0.8l0.4,0.6l0.1,0.3v0.5l0.2,0.5l0.4,0.2l0.5,0.2l0.4,0.3l0.2,0.5l0.1,0.6l0.2,0.5l0.5,0.2
		l0.5,0.1l0.5,0.2l0.4,0.3l0.3,0.4l0.2,1.6v0.2l-0.1,0.3l-0.4,0.2l-0.2,0.5l-0.1,0.6l0.1,1.9l0.2,0.6l0.5,0.4l-0.1,0.1l-0.7,0.6
		l-0.1,0.4l-0.1,0.8l0,0l-1.2,0.5l-0.6,0.9l-0.2,1.2l0.5,7.2l-0.5,0.4l-0.1,0.2l-0.2,0.6l-0.7,1l-0.1,0.5l0.2,0.6l0.4,0.5l0.2,0.5
		l-0.5,1.1v0.9l-0.2,0.5l0.2,0.2l0.1,0.4l-0.1,1.4l-0.3,0.9v0.6l0.2,2.2l-0.1,0.2l-0.3,0.4v0.2l0.1,0.2l0.4,0.3l0.1,0.2l0.1,0.9v0.5
		l-0.1,0.2l-0.4,0.2l-0.5,0.6l-0.4,0.7l-0.2,0.7h-0.2l1.2,0.4l0.3,0.1l0.2,0.2l0.4,0.3l0.4,0.2h0.3l0.4-0.5l0.2-1.7l0.3-0.6l0.4-0.6
		l0.3-1.7l0.6-1.2l0.6-2.2h0.2l0.5,2.1l-1.2,7.2l-0.4,0.8l-0.1,0.5v0.6l0.2,1.7l-0.1,0.6l-0.3-0.1l-0.4-0.3h-0.4l-0.3,0.4l0,1.2
		l-0.2,0.5l-0.5,0.8l-0.2,0.5l-0.4,4.4l0.2,6l0.2,0.5l0.1,0.5l-0.2,0.6l-0.3,0.6l-0.2,0.4l0.1,0.4l0.2,0.6l0.3,0.5l0.3,0.2l0.5,2.3
		l0.9,2.3l2,3.2l0.3,0.2l3.3,5.7l-0.1,0.8H489l-0.2-0.2l-0.2-0.1l-0.3,0.2v0.3l0.3,0.6l-0.2,0.7l0.2,0.5l0.1,0.6l-0.4,0.5h0.2h0.1
		h0.1h0.2l-0.3,0.4l-0.5,1.2l-0.2,0.4l-0.3,0.3l-2.2,1.8l-1.6,0.8l0.2,0.4v0.4l-0.1,1l0.2,2.2l0.2,0.6l0.4,0.3l1.3,0.7l0.2,0.1
		l0.2,0.2l0.1,0.4v0.4v0.2l0.1,0.2l0.2,0.2l0.3,0.2l0.3,0.1l0.3,0.1l0.2,0.3l0.1,0.3l0.2,1.4l0.2,0.8l0.3,0.7l0.4,0.3v0.3l0.7,1.6
		l0.7,2.6l0.7,1l1.3-0.1l-0.1,0.4v0.5l0.1,0.7l-0.5,1.2l0.5,1.6l0.1,0.7l0.1,0.4l1.4,2l2.2,1.6l0.4,0.3l0.3,0.4l0.8,1.6l1.3,1.4
		l1.1,1.8l0.8,0.8l1,0.6l1.6,0.5l0.6,0.1h0.4l0.3,0.1l0.6,0.3l0.3,0.1l0.5,0.2l4,3.4l0.4,0.5l0.7,1.7l0.7,1.1l0.2,0.6l0.1,1l0.5,1.3
		v0.3v0.5l0.3,1.2v0.6l-0.6,1v0.7l0.9,3.2l0.7,0.5l0.2,0.5l0.1,0.6l-0.2,0.5l0.1,0.4v0.8l0.1,0.4l0.2,0.4l0.8,1l0.7-0.1l0.7,0.2
		l0.5,0.5l0.3,0.8l0.2,0.1h0.2h0.2l0.3,0.1l0.1,0.1v0.2l0.1,0.2l1.2,1.2l-0.1,0.1l-0.1,0.3l0.6,0.1l0.7,0.2l0.5,0.3l0.8,1.5l0.2,0.2
		l0.6,0.6l0.4,0.7v0.5l-0.2,0.5l-0.1,0.7v0.5l-7,1.1l-5.7,0.9l-7.6,1.2l-7.6,1.2l-0.5,0.1l-6,0.9l-4.5,0.7l-4.9,0.8l-3.4,0.5
		l-0.7,0.3l0.1,0.5l1.2,2.6l-0.1,2.6l-1.1,2.5l-3.6,4.8l-4.7,4.7l-2.6,2l-2.6,1.2l-1.2,0.8l-0.6,1.1l0.5,1.1l1.2,0.5l1.4,0.3l1,0.5
		l0.6,0.7l0.1,0.6l-0.1,0.5v0.4l0.1,0.5l0.3,0.3l0.7,0.5l0.2,0.3l0.1,0.3l0.1,0.4v0.5l0.1,0.4l0.3,0.1h0.9l-0.2,0.2l-0.6,0.2
		l-0.1,0.2l0.1,0.3l0.5,0.6l0.1,0.4l0.1,0.3l0.3,0.6l0.1,0.3v1.3l0.2,0.6l0.4,0.6l0.3,0.2l0.2,0.1l0.2,0.2l0.1,0.4l0.7,0.8l-0.1,0.1
		l-0.5,0.2l-0.3,0.5l-0.3,1.2l-0.9,1.9l-0.4,0.4l0.2,2.1l-0.1,2.3l-0.3,1.1l-0.4,0.9l-0.7,0.8l-0.3,0.5l1,0.8l0.1,0.1l0.1,0.3
		l0.1,0.2l0.1,0.1l0.2,0.1l0,0l0.2,0.6l-0.1,0.4l-0.2,0.5l-0.1,0.6l0.1,0.7l0.2,0.5l0.3,0.5l0.2,0.6v0.3v0.4l-0.1,0.3l-0.2,0.3
		l-0.1,0.3l0.2,0.4l-0.1,0.3v0.4l0.4,0.5l0.7,0.8v0.3l-0.2,0.6v0.3l0.2,0.3l0.7,0.5l0.2,0.2l-0.2,0.6l-0.4,0.5l-0.4,0.4l-0.4,0.3
		h-0.2h-0.4l-0.2,0.1l-0.1,0.1l-0.4,0.7L467,462l-0.2,0.3l-0.5,0.5l-0.4,0.6l-0.3,0.7l-0.1,0.7v1.3l-0.1,0.3l-0.3,0.6l-0.1,0.3
		l-0.1,0.3l-0.5,0.5l-0.2,0.3v0.3l0.1,0.6v0.3l-0.1,0.3l-0.4,0.7l-0.4,0.6v0.3l0.3,1.5v0.4l-0.1,0.3l-0.2,0.4l-0.1,0.2v0.3v1
		l-0.5,1.1l-0.3,0.3l-0.3,0.4l-0.1,0.6l0.2,1.1l-0.2,0.1l-0.6,0.5l-0.1,0.1l-1.5,2.2l-0.1,0.5v1.6l0.1,0.4l0.2,0.2l0.3,0.9l0.2,0.3
		l0.4,0.4l0.2,0.3l0.5,1.7v0.3l-0.1,0.1l0.2,0.3l0.4,0.4l0.1,0.3l0.3,2l0.2,0.4l0.5,0.1l0.3,0.3l0.2,1.4l0.3,0.4l0.4-0.2h0.3
		l0.3,0.2l0.3,0.2l0.1,0.2l0.3,0.6l0.1,0.3l0.7-0.4l0.4,0.3l0.5,1.1l0.4,0.3l1.4,0.8l0.6,0.2l1-0.2l0.3,0.2l0.1,0.8l0.2,0.4l0.4,0.3
		l1,0.5l0.4,0.3l0.4,0.5l0.3,0.6l0.1,0.5l0.3,0.3l1.7,0.9l0.7,0.9l2.3,4.3l0.1,0.3v0.4l0.1,0.1h0.2l0.3,0.1h0.4l0.5-0.2l0.5-0.1
		l0.3,0.6l0.5-0.3l0.6-0.3l0.7-0.2h2.3l0.3,0.1l0.5,0.6l0.4,0.3l0.3,0.1l0.3,0.1h1.1h0.2l1.2,0.7l0.8,0.3h0.2h0.4h0.2l0.2,0.1
		l0.1,0.1l0.1,0.1l0.2,0.1l0.5-0.1l0.4-0.3l0.3-0.4l0.1-0.5l-0.1-0.5l-0.3-0.2h-0.4l-0.4-0.2l-0.9-1.1l-0.1-0.2v-0.2l0.1-0.3
		l0.1-0.7l0.3-1.1l0.2-0.4l0.4-0.3l1.3-0.4l0.6-0.3l0.4-0.4l0.3-0.1h0.4l0.4,0.1l0.5,0.5l0.3,0.2l0.5-0.1l1.5-0.7l1-0.7l0.6-0.2
		l1.2-0.1v0.1v0.1l0,0v3.1v3.4v4.9v4.4v5.1v4.4v4.1v4.4v3.2l-0.4,0.9l-0.4,0.1h-1.8l-1.1-0.3l-0.6-0.2l-0.4-0.3l-0.2-0.3l-0.2-0.3
		l-0.1-0.3l-0.1-0.3v-0.4l0.2-0.2l0.3-0.1l0.2-0.1l0.1-0.3l-0.1-0.6v-0.2l0.2-0.2l0.5-0.1l0.2-0.1l0.1-0.2l0.1-0.3v-0.3l-0.1-0.3
		l-0.3-0.3h-0.2l-0.2,0.1h-0.3l-0.5-0.4l-0.5-0.4l-0.5-0.3h-0.7l-0.7,0.3l-1.7,1.6l-0.6,0.4l-4,1.6l-1.7,1.1l-0.6,0.3l-0.4,0.2
		l-0.5,0.7l-0.3,0.2l-0.4-0.1l-0.2-0.3l-0.2-0.4l-0.3-0.4l-0.6-0.3h-0.7l-0.7,0.1h-0.2h-0.5l-0.5,0.2l-0.5,0.1l-0.5-0.1l-0.4-0.5
		l-0.9-0.9l-0.5-1.2l-0.9-4.3l-0.3-0.4l-0.3-0.1h-0.6l-0.3-0.2l-0.3-1l-0.1-0.1h-0.2l-0.2-0.1l-0.1-0.1v-0.2v-0.3v-0.1v-0.1l0.1-0.3
		v-0.1l-0.1-0.1l-0.4-0.1l-0.1-0.1l-0.3-1.1l-0.2-0.3l-0.5-0.4l-1.9-2.5l-1.1-1.2l-1.3-0.3l-0.4,0.2l-0.4,0.8l-0.3,0.3l-0.4,0.2
		h-0.4l-0.3-0.3l-0.1-1.5l-0.5-0.7l-0.6-0.6l-0.6-0.8l-0.2-0.7l0.3-0.4l0.5-0.3l0.3-0.5V518l-0.3-0.5l-1-1l-0.4-0.7l-0.6-1.4
		l-0.4-0.6l-2.4-2.1l-0.5-0.3l-0.5-0.2H458l-0.6,0.1h-0.8l-0.5-0.3l-0.4-0.4l-0.5-0.2l-0.7,0.2l-0.4,0.4l-0.4,0.2l-0.7-0.6l-0.1-0.3
		l-0.1-0.3l-0.1-0.2l-0.3-0.2l-2.1-0.2h-0.4l-0.5,0.1l-0.6-0.2l-0.2-0.6l-0.1-0.7l-0.4-0.5l-1.6-1l-0.6-0.2l-0.7-0.1l-0.4,0.2
		l-0.3,0.4l-0.5,0.4l-0.9,0.2l-1.3,0.1l-1.3-0.1l-0.8-0.3l-1.2-1.3l-0.2-0.1l-1.5-1.2l-0.4-0.6l-1.4-4l-0.1-1.2l-1.3-2.3l-5.3-3.3
		l-0.7-2.5l0.1-1l-0.1-1.4l-0.3-1.3l-0.5-0.7h-0.2l-0.8,0.3l-1.2,0.1l-1.1,0.4h-0.3l-0.6-0.1h-0.2l-0.4,0.4v0.6l0.4,1.2v0.8
		l-0.3,0.4l-0.4,0.4l-0.4,0.6l-0.3,1.1l-0.1,2.4l-0.6,1.1l-1,1l-1.1,0.6l-1.2,0.3l-1.3-0.1H415l-0.4,0.4l-0.3,0.5l-0.4,0.4l-0.6,0.1
		l-0.5-0.2l-0.5-0.4l-0.5-0.3l-1.1-0.2l-2.3-0.2l-1-0.3l-0.5-0.4l-0.4-0.4l-0.5-0.4l-0.7-0.2h-1.1l-1.1,0.2l-0.3,0.1l-0.6,0.4
		l-0.3,0.1h-0.3l-0.6-0.3l-1,0.1l-0.6-0.3l-0.6-0.4l-0.6-0.2l-4.9,0.1l-0.4-0.1l-0.5-0.2l-0.4-0.9l-0.4-0.3l-0.6-0.2l-1.6-1.3
		l-0.1-0.1l-0.1-0.1l-0.3-0.1l-0.2,0.1l-0.6,0.3h-0.3h-1.6l-0.5-0.1l-1.1-0.6l-0.9-0.8l-1-0.6h-1.3l-0.2,0.2l-0.1,0.3l-0.1,0.3
		l-0.3,0.1l-0.4,0.1l-0.2,0.2l-0.2,0.2l-0.3,0.1H379l-0.4-0.2l-0.2-0.4l0.2-0.7v-0.2v-0.2v-0.2l-0.5-0.4l-1.6-0.8l-0.2-0.2l-0.1-0.2
		l-0.2-0.2l-0.4-0.1h-0.4H375l-0.2-0.1l-0.2-0.3l-0.3-0.5l-0.8-2.4l-0.1-0.5v-0.3l0.1-0.3l0.4-0.5v-0.3l-0.2-0.5l-0.6-1.1l-0.2-0.6
		v-0.7l0.2-0.3l0.3-0.3l0.2-0.5l-0.1-0.2l-0.3-0.2l-0.2-0.2l0.3-0.3l0.6-0.2l0.2-0.2v-0.3l-0.1-0.6v-0.7l-0.1-0.7l-0.3-0.3l-0.9,0.1
		L370,477l-1.7,0.4l-4.1,0.4l-1.1-0.1l-1.2,0.4l-2.1,1.1l-1.1,0.2h-2.1l-1.1,0.5l-0.3,0.3l-0.5,0.7l-0.3,0.3l-0.3,0.1l-0.6,0.1
		l-0.3,0.1l-0.2,0.2l-0.2,0.2l-0.1,0.3l-0.1,0.3l-0.2,0.2h-0.3h-0.3h-0.3l-1.2,0.4l-0.6,0.1l-0.7-0.1l-0.6-0.3l-1-0.9l-0.6-0.4
		l-0.5-0.1h-1.2l-0.5-0.2l-0.2-0.5l0.4-0.3l1.2-0.4l0.4-0.4l0.9-1.4l0.2-0.5l0.1-0.6v-0.6v-0.6l-0.1-0.5l-0.2-0.2l-0.5-0.4l-0.2-0.3
		v-0.4l0.2-0.3l0.2-0.3l0.1-0.3l-0.3-0.6l-0.7-0.6l-0.8-0.5l-0.6-0.3l-0.5-0.1h-1.1l-0.6-0.1l-1.1-0.3h-0.5l-0.6,0.2l-0.6,0.1
		l-0.2-0.4v-1l-0.1-0.3l-0.2-0.6l-0.1-0.3v-0.3l0.2-0.5v-0.3l-0.6-0.6l-1.2-0.4l-1.3-0.3h-1l-0.5,0.3l-0.2,0.6l-0.1,0.7l-0.2,0.6
		l-0.6-0.4l-0.6,0.4l-0.3,0.2l-0.2,0.3l-0.2,0.6l-0.2,0.3l-1,0.4l-1.1-0.2l-1.2-0.4l-1.1-0.1l-1.1,0.1l-0.9-0.1l-2.4-0.7l-1.8-0.5
		l-1.1-0.1l-1.2,0.1l-1.2,0.3l-1.9,1.1l-3.1,1.7l-2.3,0.4l-2.9,0.5h-1.2l-1.1-0.2l-0.6-0.2l-1.1-0.7l-0.6-0.3h-0.7l-0.6,0.3
		l-0.6,0.4l-0.6,0.3l-1,0.2l-1.1-0.1l-1.1-0.3l-1.1-0.4l-2.2-0.9l-1,0.2l-0.9,2.3l-0.8,0.7l-2.8,1l-0.4,0.3L287,476l-0.5,0.3h-0.7
		l0.4-1.2l0.1-1.2l-0.3-2.6l-0.2-0.5l-0.5-0.9l-0.1-0.5l-0.1-0.1l-0.4-0.3l-0.1-0.1v-1.1l-0.6-2l-0.3-0.4v-0.5l0.5-0.6l0.7-0.6
		l0.5-0.4l1.2-0.5l0.7-0.2l0.5-0.1l0.3-0.2l0.1-0.6l-0.1-1.1v-0.1l0.2-0.2l-0.5-0.7l-0.1-1V458v-0.6l-0.1-1.2l-0.3-0.6l-0.4-0.4
		l-0.3-0.4l-0.1-0.6l0.2-0.6l0.6-1l0.1-0.4v-0.3l0.1-0.6V451l-0.1-0.3l-0.4-0.5l-0.2-0.9l-0.7-1.2l-0.5-1.4l-0.7-1.3l-0.5-1.3
		l0.2-0.9l-0.1-0.4l-0.2-1.2l-0.6-1.6l-0.2-1l-0.2-0.6l-0.4-0.5l-1.1-0.7l-0.5-0.4l-0.3-0.2l-0.2,0.2l-0.2,0.1l-0.3-0.2l-1.6-1.9
		l-0.3-0.8l-0.1-0.9l-0.2,0.1l-0.4,0.2l-0.2,0.1l-0.4-1.1l-1.8-1.9l-0.7-1.1l-0.3-1.2l-0.3-2.5l-0.4-1.2l-0.2-0.3l-0.5-0.6l-0.1-0.3
		v-0.4l0.3-0.6l0.2-1l0.9-1.8l0.3-1.2v-1.2l-0.3-2.9l0.4-3.3l-0.1-1.5l0.2-2.3l0.3-0.7l0.2-1l0.2-0.2l0.3-1.8l0.3-2.1l0.3-0.9
		l0.5-0.9h-0.2l-0.1-0.1l-0.1-0.1l-0.1-0.1l0.7-2.2l0.1-1.3l-0.2-1.2l-0.7-1.1l-0.3-0.7l0.2-0.3l0.2-0.1l0.2-0.1l-0.3-0.5l-0.8-0.8
		l-0.2-0.5l-0.3-1.4l-0.1-1.2l-0.1-0.5l-0.2-0.4l-0.7-0.8l-0.3-0.5l0.1-0.8l-0.1-0.7l-0.2-0.3l-0.9-0.5l-0.3-0.2l-0.1-0.5l-0.1-2
		l0.1-0.3l0.4-0.6l0.1-0.3v-0.3l-0.2-0.7l0.2-1.3l0.2-0.5l0.3-0.9l0.2-0.6l0.4-1.1l0.3-1l0.2-0.6l0.1-0.4l0.1-0.5l0.1-0.2l0.4-0.4
		l0.1-0.2v-1.1l-0.1-0.3l-0.1-0.2l-0.1-0.2v-0.4l0.1-0.3l0.3-0.6l0.1-0.4L275,367l-0.3-0.3l-0.1-0.2v-0.1l0.1-0.3v-0.2l-0.1-0.4
		l-0.2-0.2l-0.2-0.2l-0.2-0.3l0.1-0.2l0.1-0.2l0.1-0.2l-0.2-0.3l-0.2-0.2l-0.6-1.4l-0.2-0.2l-0.2-0.1l-0.2-0.1l-0.1-0.1v-0.1H272h-1
		h-2.1h-2.1h-2.1h-2.1h-2.1h-2.1h-2.1h-2.1H252h-2.1h-2.1h-2.1h-2.1h-2.1h-2.1h-2.1H236v-1.4v-1.4l0.2-1.3l0.6-1.6l0.4-1.2l0.8-2
		l0.7-1.7h-1.6h-2.5h-2.4h-1.5h-0.3l-0.2,0.2l-0.2,0.4l-0.1,0.4l-0.1,0.9v0.4h-1.4h-1.2H226h-1.2h-1.2h-1.2h-1.2h-0.9H220h-1.2h-1.2
		h-1.2h-1.2H214h-1.2h-1.2h-1.2h-1.2h-1.5l0.5,1.1l0.1,0.3l-0.2,0.5l-0.8,1l-0.3,0.5l-0.3,0.9l-0.3,4.7l0.1,0.9l0.2,1l0.8,1.9v0.9
		l-0.8,0.6l0,0l0,0l0,0l-0.4,0.5l-0.3,1.1l-0.4,0.4l-0.5,0.1l-2-0.2l-0.1,0.8l0.2,0.8l0.3,0.8l0.2,0.7v0.7l-0.1,0.8L203,376
		l-0.3,0.9l-0.4,1.3l-0.1,0.9l0.1,0.7l0.6,2.2h-0.8h-3.6h-3.6h-3.6h-3.6h-1.3l-0.4-0.7l-0.2-0.4l-0.1-0.8l-0.2-0.2h-2h-2.2h-2.1
		l-0.3,0.2l-0.1,0.6l0.2,1.1h-0.6h-0.2h-1.7l-0.5,0.1l-0.6,0.3l-0.4,0.1h-0.4l-1.1-0.4l-1.4-0.1l-2.1-0.1l-0.5,0.1l-1.2,0.6
		l-0.4,0.1l-0.5,0.3l-0.3,0.7v0.8l0.2,0.7l-2.6,0.1l-0.8-0.2l-1.5-1.2l-0.8-0.4l-1-0.1l-0.5,0.1l-1.8,1h-0.4l-1-0.4l-0.9-0.1
		l-2.4,0.9h-0.8l-1.6-0.4L151,384l0,0l-0.2-0.4l0.3-0.8l-0.1-0.5l-0.2-0.2l-0.6-0.3l-0.3-0.3l-0.1-0.3l-0.3-0.9l-0.1,0.1l-0.2,0.1
		l-0.1,0.1l-0.1-0.2l-0.1-0.1v-0.1l0.1-0.2l-0.6-0.3l-0.3-0.2l-0.1-0.2l0.1-0.4l0.3-0.3l0.1-0.3l-0.3-0.4l-0.4,0.1l-0.1-0.2v-0.4
		l-0.1-0.3l-0.3-0.1h-0.4l-0.2-0.1l0.3-0.3v-0.2h-0.5l-0.1-0.3v-0.4v-0.3l-0.3-0.1l-0.7-0.1l-0.1-0.2l-0.1-0.3l-0.5-0.5l-0.2-0.4
		l0.1-0.3l0.2-0.3v-0.3l-0.5-0.2l0.1-0.1l0,0l-0.1-0.1l-0.1-0.2l-0.4,0.2l-0.1-0.5v-0.7l-0.1-0.5l0.1-0.5l-0.6-0.4l-1.4-0.7
		l-0.4-0.6l-0.5-1.4l-0.4-0.6l-0.3-0.2l-0.2-0.2l-0.2-0.2l-0.1-0.3l0.2-0.3l0.3-0.2l0.3-0.1l0.2-0.2l-0.1-0.2l-0.3-0.1l-0.6-0.2
		l-0.2-0.1l-0.2-0.1l-0.2,0.1l-0.2,0.4l0.7,1.1l-0.2-0.4v-0.7v-0.3l-0.1-0.4l-0.3-0.3l-0.7-0.4l-1-0.7l-0.8-0.2l-0.1-0.3v-0.4
		l-0.1-0.5l-0.5-0.6l-0.4-0.4L135,360l-0.1-0.2l0.1-1.5l-0.6-1.9l0.1-0.7l0.9,0.2v-0.6l0.2-0.5l0.1-0.4l-0.2-0.6l-0.1-0.2l-0.1-0.2
		l-0.2-0.2l-0.3-0.1l-0.3-0.1v-0.3l0.1-0.3l0.1-0.1l-0.2-1.6l-0.3-0.7l-0.7-0.5l-0.3-0.1l-0.7-0.1l-0.3-0.1l-0.3-0.3l-0.1-0.4v-0.4
		l-0.1-0.4l-1.6-2.2L130,345l-0.1-0.5l-0.1-1.1l-0.1-0.5l-0.4-1l-0.1-0.5l0.1-0.5l0.4-0.6V340l-0.3-0.3l-0.3-0.3l-0.2-0.3v-0.3
		l0.2-0.4h-0.6v-0.3l0.3-0.4l0.2-0.4l-0.1-0.4h-0.1h-0.2l-0.2-0.1l-0.2-0.3v-0.1v-1.1l0.1-0.3l0.2-0.1h0.3l0.2-0.1v-0.3l-0.1-0.3
		l-0.1-0.3v-0.2v-2.1l0.1-0.5l0.2-0.4l0.1-0.4l-0.3-0.4l-0.5-0.6l-0.1-0.4l-0.3-0.2l-0.4-0.1l-0.3-0.2l-0.5-0.7l-0.3-0.3l-0.9,0.4
		l0.6-0.7l-0.1-0.3h-0.3l-0.3,0.1h-0.2l-0.1-0.3l-0.1-1.8l-0.1-0.3l-0.1-0.3l-0.3-0.4v-0.2l0.4-0.5l0.1-0.2l-1.1-0.5l-0.2-0.1
		l-1.1-0.4l-0.5-0.1h-0.5l-0.6,0.1l-0.9,0.3l-0.4,0.1l-0.5-0.1l-0.6-0.3l-0.4-0.4l-0.5-0.3l-0.7-0.1h-1.7h-2.6H111h-0.8h-2.6H105
		h-2.6h-2.6h-2.6h-2.6H92h-2.6h-2.6h-2.6h-2.6H79h-2.6h-2.6h-1.1H71l-3.6,0.7l-0.9-0.1l-1.8-0.5l-1.3,0.2l-2.6-0.1l-3-0.1l-0.6-0.1
		l-1.7-0.6l-0.7-0.1l-3.4,0.3l-0.4-0.2l-0.7-0.4l-1.1-0.3l-3.9,0.3l-4.7,0.4l-2.2-0.2l-0.3,0.1l-0.5,0.2h-0.3l-0.8-0.3h-2.3h-0.9
		l-0.2,0.1l-0.6,0.6l-0.3,0.2l-0.9-0.5l-1.2-0.3l-2.4-0.2l0,0l0,0l-0.4-0.2l-0.5,0.1l-0.9,0.3h-0.4l-0.5-0.1l-0.6,0.1l-0.9-0.2
		l-1.3-0.6l-0.4-0.1l-1-0.4l-0.5-0.1h-0.8l-1.1,0.1l-1,0.3l-0.7,0.4l-0.2,0.1l-0.6,0.5l-0.3,0.5l-0.3,0.5l-0.7,0.9l0.1,1.4l-1.4,0.6
		l-1.9-0.1L10,325l-2.3,0.6L7,325.8H6.6l-0.1-0.5l0.1-0.2l0.6-0.4V324v-0.2l-0.3-0.2H6.4l-0.5,0.1l-0.1,0.2L5.6,324l-0.2,0.4
		l-0.3-0.6L5,323.3l-0.1-0.2L4.8,323l-0.3-0.2l-0.1-0.1l-0.6-0.8L1.9,320l-0.5-0.6l-1.1-1.9l1.4-0.8l2.4-0.3h2.6h2.1l0.1-2.6
		l0.1-1.9l0.1-3.6l0.1-3.4l0.1-2.4l0.1-2.2l-0.2-1l-0.3-0.2l-1.8-0.6l-0.2-0.2L6.8,298l-0.1-0.3v-0.2l0.1-0.3l0.2-0.1h0.2h0.2
		l2.4-0.8l1.1-0.7l0.5-1.1l0.1-0.6l0.3-0.2l1.1-0.1l0.7-0.2l0.2-0.3l0.1-0.5l0.2-0.6l0.4-0.4l1.3-0.7l0.3-0.3l0.1-0.7l0.2-0.6
		l0.3-0.6l0.5-0.5l0.9-0.5l5.6-1.3l1-0.4l0.2-0.8l-0.1-1l0.5-0.6l0.7-0.1l0.6,0.7l0.2,0.4l0.5,0.7l0.4,0.9l0.3,0.3l0.8,0.5l1.3,1.2
		l0.5,0.3l1.7,0.6l0.4,0.2l0.3,0.3l0.2,0.3l0.2,1l0.6,1.2l0.3-0.2l0.8-1l1.5-1.1l0.3-0.2l0.1-0.2l-0.1-0.2l-0.3-0.2l0.9-0.5h0.3
		l0.4,0.2l0.6,0.6l0.3,0.2l0.3-0.1l0.3-0.1l0.6-1.1l0.6-0.4h0.3l0.6,0.2H42l0.1-0.2l-0.1-0.5l0.1-0.3l0.2-0.1l0.2,0.1h0.2l0.2-0.2
		l-0.4-1.2l0.1-0.6l0.4-1.2l0.1-0.6l-0.3-2.8l0.1-0.3l0.3-0.2l1.8-0.6l0.6,0.1l0.6,0.4l0.3,0.3l0.4,0.8l0.3,0.3l0.3,0.1l0.8-0.1l0,0
		l0.8,0.2h0.3l0.3-0.2l0.5-0.6l0.5-0.3l0.1-0.1l0.1-0.1l0.8-1.1l1.1-0.4l2.5-0.3l1.1-0.4l1.1-0.5l1.1-0.9l0.6-0.4l1.3-0.3l1.2-0.7
		h0.5l0.2,0.1l0.1,0.2v0.3l-0.1,0.4l-0.1,0.4l-0.1,0.2v0.2l0.2,0.4l0.5,0.7l0.6,0.7l1,0.6l0.2,0.2l-0.1,0.5l-0.4,0.6l-0.5,0.5
		l-0.3,0.4l-0.3,0.3l-1.1,0.4l-0.4,0.4l-0.2,0.4v0.2l0.2,0.6l0.2,1.1l0.4,0.5l0.4,0.4l0.3,0.5L63,287l-0.1,0.3l-0.2,0.5l-0.1,0.3
		v0.3l0.1,0.3l0.1,0.3l0.1,0.3l-0.5,2.2l0.1,0.9l0.5-0.1l0.5-0.1l0.3-0.2l0.6-0.6l0.3-0.2l0.6-0.1h0.5l0.2,0.3l0.1,0.1h0.6h0.2
		l0.1,0.1l0.2,0.4l0.1,0.1l0.4,0.1l0.9,0.5l0.3,0.1l1.1-0.1l0.8-0.3l1.9-1.2l1.3-0.6l0.4-0.4l0.3-0.4l0.2-0.5l2.3-3.9l2.2-2.2
		l0.2-0.4l0.2-0.3l1.5-0.8l0.6-0.6l1.5-2.1l1.1-1.5l0.2-0.4l0.3-0.6l0.7-0.4l0.8-0.3l0.6-0.4l3.2-1.6l1.1-0.4l0.7-0.4l0.2-0.1
		l0.1-0.2L93,272l0.2-0.2l0.9-2.8l0.4-0.5l0.4-0.3l0.5-0.2l4.1-1.3l1.2-0.2l1.3-0.2l1.3-0.4l1.1-0.6l0.1-0.1l0.7-0.7l0.5-1.7
		l0.2-0.3l0.2-0.2l0.9-1.5l0.5-1.4l0.4-0.4l0.2-0.6l1.2-2.3l1.8-2.2l0.6-1.2l0.6-1.5l1.4-2.4l0.4-0.9l0.1-0.5l0.1-0.7l-0.2-0.3
		l-0.3-0.2l-0.3-0.3l-0.1-0.6l0.2-1.2v-0.7l-0.3-0.5l-0.1-0.5l0.1-1.5l-0.2-1.6l0.1-1.4l-0.1-1l-0.2-1.7v-0.4l0.1-0.4l0.7-2l0.6-4.2
		l-0.9-6.8V220l-0.1-0.3l-0.1-0.1l-0.3-0.4l-0.1-0.4l0.1-0.5l0.4-1.3v-0.2v-0.2v-0.7l0.2-0.6l0.3-0.6l0.7-0.9l0.7-0.6l0.8-0.5
		l1.6-1.5l1.2-0.9l1.8-1.8l0.4-0.6l0.3-0.2l0.1-0.1l0.4-0.2l0.5-0.4l0.2-0.1l0.1-0.4l0.2-0.3l0.1-0.1l2.3-3l0.4-0.7l0.2-0.8v-1v-0.3
		l0.1-0.5l0.2-0.5l0.6-0.9l0.4-0.6l0.7-1.3l0.9-1.2l1.1-2.1l0.5-0.7l0.4-1.1l0.7-1.2l0.3-0.8l0.1-0.2l0.2-0.2l0.6-0.4l1.3-1.1l0.9-1
		l1.1-1l0.7-0.8l0.1-0.2l0.2-0.1l0.3-0.2l0.2-0.1l0.9-0.1l1.4-0.4l1.9-0.8l0.6-0.1l1.4-0.2l1.5-0.4l0.3-0.2l0.6-0.7l0.1-0.1l0.8-0.4
		l0.2-0.2l0.6-0.7l0.7-0.7l3.8-4.6l1.6-1.9l0.6-0.4l0.4-0.4l0.3-0.2l0.1-0.1v-0.1l0.1-0.4l0.1-0.2l0.2-0.2l1.8-1.7l0.4-0.6l0.2-0.3
		l-0.2-5l-0.7-2.8l-0.1-0.7l0.1-0.7l1.2-5.3l0.5-1l2.2-6.1l2.4-3.4l0.2-0.5l0.2-2.8l-0.1-0.5l-0.2-0.6l-0.3-0.5l-0.4-0.2l-0.5-1.4
		l-0.2-0.7V135l0.4-2.2V132l-0.8-3.6v-2.3l-0.3-2l0.2-0.7l0.5-1.1l0.6-0.7l1.2-2l0.2-0.6l0.1-1.8l1-3.2l0.1-1l0.2-0.6l1.7-3.7
		l0.1-0.6l-0.2-8.2l0.1-0.5l0.3-0.9l0.1-0.5v-0.5l-0.2-1.3l0.1-2.7l-0.1-0.9l-0.2-0.9v-0.4l1.1-3l0.2-0.3l0.7-0.8l0.1-0.3l0.5-0.1
		l0.3-0.4l0.4-1l0.3-0.5l0.2-0.5l0.2-0.6l0.3-1.7l0.2-0.5l0.4-0.5l1.6-1.5l0.3-0.1l0.1-0.2l2.2-3.7l0.7-1.9l0.1-0.8l0.1-0.4l0.7-1.4
		l0.5-0.7l0.1-0.3l0.1-0.6l0.1-0.3l0.4-0.7l0.9-2.8l0.4-0.5l0.6-0.4l1-0.5l0.4-0.4l0.2-0.5l0.1-0.3l0.3-0.6l0.3-4.1l-0.2-3.6L183,55
		z M20.1,321.5l0.8,0.1l0.6-0.1l0.5-0.1h0.6l-0.7,0.6l-0.8,0.3l-1.6,0.3l-0.4,0.3l-0.9,0.3l-0.9,0.8l-0.7,0.2l-0.6-0.1l-0.5-0.5
		l0.6-0.6l0.8-0.7l0.9-0.7l0.8-0.1L20.1,321.5z"/>
</g>
</svg>
