<svg width="1922" height="1082" viewBox="0 0 1922 1082" fill="none" xmlns="http://www.w3.org/2000/svg">
<rect x="1" y="1" width="1920" height="1080" fill="#FF0000" fill-opacity="0.1"/>
<rect x="1" y="600.873" width="119.975" height="119.975" transform="rotate(-90 1 600.873)" stroke="white"/>
<rect x="120.975" y="600.873" width="119.975" height="119.975" transform="rotate(-90 120.975 600.873)" stroke="white"/>
<rect x="240.949" y="600.873" width="119.975" height="119.975" transform="rotate(-90 240.949 600.873)" stroke="white"/>
<rect x="360.924" y="600.873" width="119.975" height="119.975" transform="rotate(-90 360.924 600.873)" stroke="white"/>
<rect x="480.898" y="600.873" width="119.975" height="119.975" transform="rotate(-90 480.898 600.873)" stroke="white"/>
<rect x="600.873" y="600.873" width="119.975" height="119.975" transform="rotate(-90 600.873 600.873)" stroke="white"/>
<rect x="720.848" y="600.873" width="119.975" height="119.975" transform="rotate(-90 720.848 600.873)" stroke="white"/>
<rect x="840.824" y="600.873" width="119.975" height="119.975" transform="rotate(-90 840.824 600.873)" stroke="white"/>
<rect x="1" y="480.898" width="119.975" height="119.975" transform="rotate(-90 1 480.898)" stroke="white"/>
<rect x="1" y="1081" width="119.975" height="119.975" transform="rotate(-90 1 1081)" stroke="white"/>
<rect x="120.975" y="480.898" width="119.975" height="119.975" transform="rotate(-90 120.975 480.898)" stroke="white"/>
<rect x="120.975" y="1081" width="119.975" height="119.975" transform="rotate(-90 120.975 1081)" stroke="white"/>
<rect x="240.949" y="480.898" width="119.975" height="119.975" transform="rotate(-90 240.949 480.898)" stroke="white"/>
<rect x="240.949" y="1081" width="119.975" height="119.975" transform="rotate(-90 240.949 1081)" stroke="white"/>
<rect x="360.924" y="480.898" width="119.975" height="119.975" transform="rotate(-90 360.924 480.898)" stroke="white"/>
<rect x="360.924" y="1081" width="119.975" height="119.975" transform="rotate(-90 360.924 1081)" stroke="white"/>
<rect x="480.898" y="480.898" width="119.975" height="119.975" transform="rotate(-90 480.898 480.898)" stroke="white"/>
<rect x="480.898" y="1081" width="119.975" height="119.975" transform="rotate(-90 480.898 1081)" stroke="white"/>
<rect x="600.873" y="480.898" width="119.975" height="119.975" transform="rotate(-90 600.873 480.898)" stroke="white"/>
<rect x="600.873" y="1081" width="119.975" height="119.975" transform="rotate(-90 600.873 1081)" stroke="white"/>
<rect x="720.848" y="480.898" width="119.975" height="119.975" transform="rotate(-90 720.848 480.898)" stroke="white"/>
<rect x="720.848" y="1081" width="119.975" height="119.975" transform="rotate(-90 720.848 1081)" stroke="white"/>
<rect x="840.824" y="480.898" width="119.975" height="119.975" transform="rotate(-90 840.824 480.898)" stroke="white"/>
<rect x="840.824" y="1081" width="119.975" height="119.975" transform="rotate(-90 840.824 1081)" stroke="white"/>
<rect x="1" y="360.924" width="119.975" height="119.975" transform="rotate(-90 1 360.924)" stroke="white"/>
<rect x="1" y="961.025" width="119.975" height="119.975" transform="rotate(-90 1 961.025)" stroke="white"/>
<rect x="120.975" y="360.924" width="119.975" height="119.975" transform="rotate(-90 120.975 360.924)" stroke="white"/>
<rect x="120.975" y="961.025" width="119.975" height="119.975" transform="rotate(-90 120.975 961.025)" stroke="white"/>
<rect x="240.949" y="360.924" width="119.975" height="119.975" transform="rotate(-90 240.949 360.924)" stroke="white"/>
<rect x="240.949" y="961.025" width="119.975" height="119.975" transform="rotate(-90 240.949 961.025)" stroke="white"/>
<rect x="360.924" y="360.924" width="119.975" height="119.975" transform="rotate(-90 360.924 360.924)" stroke="white"/>
<rect x="360.924" y="961.025" width="119.975" height="119.975" transform="rotate(-90 360.924 961.025)" stroke="white"/>
<rect x="480.898" y="360.924" width="119.975" height="119.975" transform="rotate(-90 480.898 360.924)" stroke="white"/>
<rect x="480.898" y="961.025" width="119.975" height="119.975" transform="rotate(-90 480.898 961.025)" stroke="white"/>
<rect x="600.873" y="360.924" width="119.975" height="119.975" transform="rotate(-90 600.873 360.924)" stroke="white"/>
<rect x="600.873" y="961.025" width="119.975" height="119.975" transform="rotate(-90 600.873 961.025)" stroke="white"/>
<rect x="720.848" y="360.924" width="119.975" height="119.975" transform="rotate(-90 720.848 360.924)" stroke="white"/>
<rect x="720.848" y="961.025" width="119.975" height="119.975" transform="rotate(-90 720.848 961.025)" stroke="white"/>
<rect x="840.824" y="360.924" width="119.975" height="119.975" transform="rotate(-90 840.824 360.924)" stroke="white"/>
<rect x="840.824" y="961.025" width="119.975" height="119.975" transform="rotate(-90 840.824 961.025)" stroke="white"/>
<rect x="1" y="240.949" width="119.975" height="119.975" transform="rotate(-90 1 240.949)" stroke="white"/>
<rect x="1" y="841.051" width="119.975" height="119.975" transform="rotate(-90 1 841.051)" stroke="white"/>
<rect x="1" y="120.975" width="119.975" height="119.975" transform="rotate(-90 1 120.975)" stroke="white"/>
<rect x="1" y="721.076" width="119.975" height="119.975" transform="rotate(-90 1 721.076)" stroke="white"/>
<rect x="120.975" y="240.949" width="119.975" height="119.975" transform="rotate(-90 120.975 240.949)" stroke="white"/>
<rect x="120.975" y="841.051" width="119.975" height="119.975" transform="rotate(-90 120.975 841.051)" stroke="white"/>
<rect x="120.975" y="120.975" width="119.975" height="119.975" transform="rotate(-90 120.975 120.975)" stroke="white"/>
<rect x="120.975" y="721.076" width="119.975" height="119.975" transform="rotate(-90 120.975 721.076)" stroke="white"/>
<rect x="240.949" y="240.949" width="119.975" height="119.975" transform="rotate(-90 240.949 240.949)" stroke="white"/>
<rect x="240.949" y="841.051" width="119.975" height="119.975" transform="rotate(-90 240.949 841.051)" stroke="white"/>
<rect x="240.949" y="120.975" width="119.975" height="119.975" transform="rotate(-90 240.949 120.975)" stroke="white"/>
<rect x="240.949" y="721.076" width="119.975" height="119.975" transform="rotate(-90 240.949 721.076)" stroke="white"/>
<rect x="360.924" y="240.949" width="119.975" height="119.975" transform="rotate(-90 360.924 240.949)" stroke="white"/>
<rect x="360.924" y="841.051" width="119.975" height="119.975" transform="rotate(-90 360.924 841.051)" stroke="white"/>
<rect x="360.924" y="120.975" width="119.975" height="119.975" transform="rotate(-90 360.924 120.975)" stroke="white"/>
<rect x="360.924" y="721.076" width="119.975" height="119.975" transform="rotate(-90 360.924 721.076)" stroke="white"/>
<rect x="480.898" y="240.949" width="119.975" height="119.975" transform="rotate(-90 480.898 240.949)" stroke="white"/>
<rect x="480.898" y="841.051" width="119.975" height="119.975" transform="rotate(-90 480.898 841.051)" stroke="white"/>
<rect x="480.898" y="120.975" width="119.975" height="119.975" transform="rotate(-90 480.898 120.975)" stroke="white"/>
<rect x="480.898" y="721.076" width="119.975" height="119.975" transform="rotate(-90 480.898 721.076)" stroke="white"/>
<rect x="600.873" y="240.949" width="119.975" height="119.975" transform="rotate(-90 600.873 240.949)" stroke="white"/>
<rect x="600.873" y="841.051" width="119.975" height="119.975" transform="rotate(-90 600.873 841.051)" stroke="white"/>
<rect x="720.848" y="240.949" width="119.975" height="119.975" transform="rotate(-90 720.848 240.949)" stroke="white"/>
<rect x="720.848" y="841.051" width="119.975" height="119.975" transform="rotate(-90 720.848 841.051)" stroke="white"/>
<rect x="840.824" y="240.949" width="119.975" height="119.975" transform="rotate(-90 840.824 240.949)" stroke="white"/>
<rect x="840.824" y="841.051" width="119.975" height="119.975" transform="rotate(-90 840.824 841.051)" stroke="white"/>
<rect x="600.873" y="120.975" width="119.975" height="119.975" transform="rotate(-90 600.873 120.975)" stroke="white"/>
<rect x="600.873" y="721.076" width="119.975" height="119.975" transform="rotate(-90 600.873 721.076)" stroke="white"/>
<rect x="720.848" y="120.975" width="119.975" height="119.975" transform="rotate(-90 720.848 120.975)" stroke="white"/>
<rect x="720.848" y="721.076" width="119.975" height="119.975" transform="rotate(-90 720.848 721.076)" stroke="white"/>
<rect x="840.824" y="120.975" width="119.975" height="119.975" transform="rotate(-90 840.824 120.975)" stroke="white"/>
<rect x="840.824" y="721.076" width="119.975" height="119.975" transform="rotate(-90 840.824 721.076)" stroke="white"/>
<rect x="1080.96" y="600.873" width="119.975" height="119.975" transform="rotate(-90 1080.96 600.873)" stroke="white"/>
<rect x="960.713" y="600.873" width="119.975" height="119.975" transform="rotate(-90 960.713 600.873)" stroke="white"/>
<rect x="1200.93" y="600.873" width="119.975" height="119.975" transform="rotate(-90 1200.93 600.873)" stroke="white"/>
<rect x="1320.91" y="600.873" width="119.975" height="119.975" transform="rotate(-90 1320.91 600.873)" stroke="white"/>
<rect x="1440.88" y="600.873" width="119.975" height="119.975" transform="rotate(-90 1440.88 600.873)" stroke="white"/>
<rect x="1560.86" y="600.873" width="119.975" height="119.975" transform="rotate(-90 1560.86 600.873)" stroke="white"/>
<rect x="1680.83" y="600.873" width="119.975" height="119.975" transform="rotate(-90 1680.83 600.873)" stroke="white"/>
<rect x="1800.81" y="600.873" width="119.975" height="119.975" transform="rotate(-90 1800.81 600.873)" stroke="white"/>
<rect x="1080.96" y="480.898" width="119.975" height="119.975" transform="rotate(-90 1080.96 480.898)" stroke="white"/>
<rect x="1080.96" y="1081" width="119.975" height="119.975" transform="rotate(-90 1080.96 1081)" stroke="white"/>
<rect x="960.713" y="480.898" width="119.975" height="119.975" transform="rotate(-90 960.713 480.898)" stroke="white"/>
<rect x="960.713" y="1081" width="119.975" height="119.975" transform="rotate(-90 960.713 1081)" stroke="white"/>
<rect x="1200.93" y="480.898" width="119.975" height="119.975" transform="rotate(-90 1200.93 480.898)" stroke="white"/>
<rect x="1200.93" y="1081" width="119.975" height="119.975" transform="rotate(-90 1200.93 1081)" stroke="white"/>
<rect x="1320.91" y="480.898" width="119.975" height="119.975" transform="rotate(-90 1320.91 480.898)" stroke="white"/>
<rect x="1320.91" y="1081" width="119.975" height="119.975" transform="rotate(-90 1320.91 1081)" stroke="white"/>
<rect x="1440.88" y="480.898" width="119.975" height="119.975" transform="rotate(-90 1440.88 480.898)" stroke="white"/>
<rect x="1440.88" y="1081" width="119.975" height="119.975" transform="rotate(-90 1440.88 1081)" stroke="white"/>
<rect x="1560.86" y="480.898" width="119.975" height="119.975" transform="rotate(-90 1560.86 480.898)" stroke="white"/>
<rect x="1560.86" y="1081" width="119.975" height="119.975" transform="rotate(-90 1560.86 1081)" stroke="white"/>
<rect x="1680.83" y="480.898" width="119.975" height="119.975" transform="rotate(-90 1680.83 480.898)" stroke="white"/>
<rect x="1680.83" y="1081" width="119.975" height="119.975" transform="rotate(-90 1680.83 1081)" stroke="white"/>
<rect x="1800.81" y="480.898" width="119.975" height="119.975" transform="rotate(-90 1800.81 480.898)" stroke="white"/>
<rect x="1800.81" y="1081" width="119.975" height="119.975" transform="rotate(-90 1800.81 1081)" stroke="white"/>
<rect x="1080.96" y="360.924" width="119.975" height="119.975" transform="rotate(-90 1080.96 360.924)" stroke="white"/>
<rect x="1080.96" y="961.025" width="119.975" height="119.975" transform="rotate(-90 1080.96 961.025)" stroke="white"/>
<rect x="960.713" y="360.924" width="119.975" height="119.975" transform="rotate(-90 960.713 360.924)" stroke="white"/>
<rect x="960.713" y="961.025" width="119.975" height="119.975" transform="rotate(-90 960.713 961.025)" stroke="white"/>
<rect x="1200.93" y="360.924" width="119.975" height="119.975" transform="rotate(-90 1200.93 360.924)" stroke="white"/>
<rect x="1200.93" y="961.025" width="119.975" height="119.975" transform="rotate(-90 1200.93 961.025)" stroke="white"/>
<rect x="1320.91" y="360.924" width="119.975" height="119.975" transform="rotate(-90 1320.91 360.924)" stroke="white"/>
<rect x="1320.91" y="961.025" width="119.975" height="119.975" transform="rotate(-90 1320.91 961.025)" stroke="white"/>
<rect x="1440.88" y="360.924" width="119.975" height="119.975" transform="rotate(-90 1440.88 360.924)" stroke="white"/>
<rect x="1440.88" y="961.025" width="119.975" height="119.975" transform="rotate(-90 1440.88 961.025)" stroke="white"/>
<rect x="1560.86" y="360.924" width="119.975" height="119.975" transform="rotate(-90 1560.86 360.924)" stroke="white"/>
<rect x="1560.86" y="961.025" width="119.975" height="119.975" transform="rotate(-90 1560.86 961.025)" stroke="white"/>
<rect x="1680.83" y="360.924" width="119.975" height="119.975" transform="rotate(-90 1680.83 360.924)" stroke="white"/>
<rect x="1680.83" y="961.025" width="119.975" height="119.975" transform="rotate(-90 1680.83 961.025)" stroke="white"/>
<rect x="1800.81" y="360.924" width="119.975" height="119.975" transform="rotate(-90 1800.81 360.924)" stroke="white"/>
<rect x="1800.81" y="961.025" width="119.975" height="119.975" transform="rotate(-90 1800.81 961.025)" stroke="white"/>
<rect x="1080.96" y="240.949" width="119.975" height="119.975" transform="rotate(-90 1080.96 240.949)" stroke="white"/>
<rect x="1080.96" y="841.051" width="119.975" height="119.975" transform="rotate(-90 1080.96 841.051)" stroke="white"/>
<rect x="960.713" y="240.949" width="119.975" height="119.975" transform="rotate(-90 960.713 240.949)" stroke="white"/>
<rect x="960.713" y="841.051" width="119.975" height="119.975" transform="rotate(-90 960.713 841.051)" stroke="white"/>
<rect x="1080.96" y="120.975" width="119.975" height="119.975" transform="rotate(-90 1080.96 120.975)" stroke="white"/>
<rect x="1080.96" y="721.076" width="119.975" height="119.975" transform="rotate(-90 1080.96 721.076)" stroke="white"/>
<rect x="960.713" y="120.975" width="119.975" height="119.975" transform="rotate(-90 960.713 120.975)" stroke="white"/>
<rect x="960.713" y="721.076" width="119.975" height="119.975" transform="rotate(-90 960.713 721.076)" stroke="white"/>
<rect x="1200.93" y="240.949" width="119.975" height="119.975" transform="rotate(-90 1200.93 240.949)" stroke="white"/>
<rect x="1200.93" y="841.051" width="119.975" height="119.975" transform="rotate(-90 1200.93 841.051)" stroke="white"/>
<rect x="1200.93" y="120.975" width="119.975" height="119.975" transform="rotate(-90 1200.93 120.975)" stroke="white"/>
<rect x="1200.93" y="721.076" width="119.975" height="119.975" transform="rotate(-90 1200.93 721.076)" stroke="white"/>
<rect x="1320.91" y="240.949" width="119.975" height="119.975" transform="rotate(-90 1320.91 240.949)" stroke="white"/>
<rect x="1320.91" y="841.051" width="119.975" height="119.975" transform="rotate(-90 1320.91 841.051)" stroke="white"/>
<rect x="1320.91" y="120.975" width="119.975" height="119.975" transform="rotate(-90 1320.91 120.975)" stroke="white"/>
<rect x="1320.91" y="721.076" width="119.975" height="119.975" transform="rotate(-90 1320.91 721.076)" stroke="white"/>
<rect x="1440.88" y="240.949" width="119.975" height="119.975" transform="rotate(-90 1440.88 240.949)" stroke="white"/>
<rect x="1440.88" y="841.051" width="119.975" height="119.975" transform="rotate(-90 1440.88 841.051)" stroke="white"/>
<rect x="1440.88" y="120.975" width="119.975" height="119.975" transform="rotate(-90 1440.88 120.975)" stroke="white"/>
<rect x="1440.88" y="721.076" width="119.975" height="119.975" transform="rotate(-90 1440.88 721.076)" stroke="white"/>
<rect x="1560.86" y="240.949" width="119.975" height="119.975" transform="rotate(-90 1560.86 240.949)" stroke="white"/>
<rect x="1560.86" y="841.051" width="119.975" height="119.975" transform="rotate(-90 1560.86 841.051)" stroke="white"/>
<rect x="1560.86" y="120.975" width="119.975" height="119.975" transform="rotate(-90 1560.86 120.975)" stroke="white"/>
<rect x="1560.86" y="721.076" width="119.975" height="119.975" transform="rotate(-90 1560.86 721.076)" stroke="white"/>
<rect x="1680.83" y="240.949" width="119.975" height="119.975" transform="rotate(-90 1680.83 240.949)" stroke="white"/>
<rect x="1680.83" y="841.051" width="119.975" height="119.975" transform="rotate(-90 1680.83 841.051)" stroke="white"/>
<rect x="1800.81" y="240.949" width="119.975" height="119.975" transform="rotate(-90 1800.81 240.949)" stroke="white"/>
<rect x="1800.81" y="841.051" width="119.975" height="119.975" transform="rotate(-90 1800.81 841.051)" stroke="white"/>
<rect x="1680.83" y="120.975" width="119.975" height="119.975" transform="rotate(-90 1680.83 120.975)" stroke="white"/>
<rect x="1680.83" y="721.076" width="119.975" height="119.975" transform="rotate(-90 1680.83 721.076)" stroke="white"/>
<rect x="1800.81" y="120.975" width="119.975" height="119.975" transform="rotate(-90 1800.81 120.975)" stroke="white"/>
<rect x="1800.81" y="721.076" width="119.975" height="119.975" transform="rotate(-90 1800.81 721.076)" stroke="white"/>
<rect x="121" y="121" width="480" height="480" fill="#FF2F2F" fill-opacity="0.1"/>
<path d="M180.847 325.256V180.234H240.489C246.617 180.234 252.2 181.528 257.238 184.115C262.413 186.702 266.906 190.175 270.719 194.532C274.532 198.754 277.459 203.519 279.502 208.83C281.681 214.141 282.77 219.588 282.77 225.171C282.77 232.932 281 240.285 277.459 247.23C274.055 254.039 269.289 259.622 263.162 263.979C257.17 268.337 250.021 270.515 241.715 270.515H191.264V325.256H180.847ZM191.264 260.915H241.306C247.706 260.915 253.221 259.213 257.851 255.809C262.481 252.405 266.021 247.979 268.472 242.532C270.923 237.085 272.149 231.298 272.149 225.171C272.149 218.771 270.651 212.915 267.655 207.605C264.796 202.158 260.915 197.8 256.013 194.532C251.247 191.264 245.936 189.63 240.081 189.63H191.264V260.915Z" fill="#2C2A29"/>
<path d="M486.821 404.915H495.809L557.085 549.936H546.055L525.834 502.141H456.592L436.37 549.936H425.136L486.821 404.915ZM522.975 493.562L491.315 417.579L459.043 493.562H522.975Z" fill="#2C2A29"/>
<rect x="1321" y="481" width="480" height="480" fill="#FF2F2F" fill-opacity="0.1"/>
<path d="M1380.85 685.256V540.234H1440.49C1446.62 540.234 1452.2 541.528 1457.24 544.115C1462.41 546.702 1466.91 550.175 1470.72 554.532C1474.53 558.754 1477.46 563.519 1479.5 568.83C1481.68 574.141 1482.77 579.588 1482.77 585.171C1482.77 592.932 1481 600.285 1477.46 607.23C1474.06 614.039 1469.29 619.622 1463.16 623.979C1457.17 628.337 1450.02 630.515 1441.71 630.515H1391.26V685.256H1380.85ZM1391.26 620.915H1441.31C1447.71 620.915 1453.22 619.213 1457.85 615.809C1462.48 612.405 1466.02 607.979 1468.47 602.532C1470.92 597.085 1472.15 591.298 1472.15 585.171C1472.15 578.771 1470.65 572.915 1467.66 567.605C1464.8 562.158 1460.91 557.8 1456.01 554.532C1451.25 551.264 1445.94 549.63 1440.08 549.63H1391.26V620.915Z" fill="#2C2A29"/>
<path d="M1686.82 764.915H1695.81L1757.09 909.936H1746.06L1725.83 862.141H1656.59L1636.37 909.936H1625.14L1686.82 764.915ZM1722.97 853.562L1691.31 777.579L1659.04 853.562H1722.97Z" fill="#2C2A29"/>
<rect x="125" y="125" width="1672" height="832" stroke="white" stroke-width="8"/>
</svg>
