<svg width="1920" height="1080" viewBox="0 0 1920 1080" fill="none" xmlns="http://www.w3.org/2000/svg">
<rect width="1920" height="1080" fill="#FF0000" fill-opacity="0.1"/>
<path d="M179.847 324.256V179.234H239.489C245.617 179.234 251.2 180.528 256.238 183.115C261.413 185.702 265.906 189.175 269.719 193.532C273.532 197.754 276.459 202.519 278.502 207.83C280.681 213.141 281.77 218.588 281.77 224.171C281.77 231.932 280 239.285 276.459 246.23C273.055 253.039 268.289 258.622 262.162 262.979C256.17 267.337 249.021 269.515 240.715 269.515H190.264V324.256H179.847ZM190.264 259.915H240.306C246.706 259.915 252.221 258.213 256.851 254.809C261.481 251.405 265.021 246.979 267.472 241.532C269.923 236.085 271.149 230.298 271.149 224.171C271.149 217.771 269.651 211.915 266.655 206.605C263.796 201.158 259.915 196.8 255.013 193.532C250.247 190.264 244.936 188.63 239.081 188.63H190.264V259.915Z" fill="white"/>
<path d="M1685.82 763.915H1694.81L1756.09 908.936H1745.06L1724.83 861.141H1655.59L1635.37 908.936H1624.14L1685.82 763.915ZM1721.98 852.562L1690.32 776.579L1658.04 852.562H1721.98Z" fill="white"/>
<rect x="124" y="124" width="1672" height="832" stroke="white" stroke-width="8"/>
</svg>
