<svg width="400" height="400" viewBox="0 0 400 400" fill="none" xmlns="http://www.w3.org/2000/svg">
<rect width="400" height="400" fill="#FFE2AA"/>
<path fill-rule="evenodd" clip-rule="evenodd" d="M328.111 71.8911H71.8889V328.109H328.111V71.8911ZM66.6665 66.6665V333.333H333.333V66.6665H66.6665Z" fill="black"/>
<path d="M98.0537 179.837V97.5181H131.909C135.387 97.5181 138.556 98.2524 141.416 99.721C144.353 101.19 146.904 103.161 149.068 105.634C151.232 108.03 152.894 110.735 154.054 113.75C155.29 116.764 155.909 119.856 155.909 123.025C155.909 127.431 154.904 131.605 152.894 135.547C150.962 139.412 148.257 142.581 144.778 145.054C141.377 147.528 137.319 148.764 132.604 148.764H103.967V179.837H98.0537ZM103.967 143.315H132.373C136.005 143.315 139.136 142.349 141.764 140.417C144.392 138.484 146.402 135.972 147.793 132.88C149.184 129.789 149.88 126.504 149.88 123.025C149.88 119.392 149.03 116.069 147.329 113.054C145.706 109.963 143.503 107.489 140.72 105.634C138.015 103.779 135.001 102.851 131.677 102.851H103.967V143.315Z" fill="black"/>
<path d="M268.59 220.881H273.691L308.474 303.2H302.213L290.735 276.07H251.431L239.952 303.2H233.575L268.59 220.881ZM289.112 271.2L271.141 228.07L252.822 271.2H289.112Z" fill="black"/>
</svg>
