<svg enable-background="new 0 0 300 300" viewBox="0 0 300 300" xmlns="http://www.w3.org/2000/svg"><path d="m0 0h300v300h-300z" fill="#f46197"/><path clip-rule="evenodd" d="m246.1 53.9h-192.2v192.2h192.2zm-196.1-3.9v200h200v-200z" fill-rule="evenodd"/><path d="m73.5 134.9v-61.8h25.4c2.6 0 5 .6 7.1 1.7 2.2 1.1 4.1 2.6 5.7 4.4s2.9 3.8 3.7 6.1c.9 2.3 1.4 4.6 1.4 7 0 3.3-.8 6.4-2.3 9.4-1.4 2.9-3.5 5.3-6.1 7.1-2.6 1.9-5.6 2.8-9.1 2.8h-21.3v23.3zm4.5-27.4h21.3c2.7 0 5.1-.7 7-2.2 2-1.5 3.5-3.3 4.5-5.7 1-2.3 1.6-4.8 1.6-7.4 0-2.7-.6-5.2-1.9-7.5-1.2-2.3-2.9-4.2-5-5.6-2-1.4-4.3-2.1-6.8-2.1h-20.7z"/><path d="m201.4 165.7h3.8l26.1 61.7h-4.7l-8.6-20.3h-29.5l-8.6 20.3h-4.8zm15.4 37.7-13.5-32.3-13.7 32.3z"/></svg>