<svg width="20" height="16" viewBox="0 0 20 16" fill="none" xmlns="http://www.w3.org/2000/svg">
<path d="M15.5759 5.72885C15.5759 10.9276 11.1111 15.0255 6.21814 15.0255C3.11927 15.0255 0 13.1498 0 9.74516C0 7.2579 1.87564 4.72987 4.01631 4.72987C4.81142 4.72987 5.28033 5.03568 5.58614 5.6473C6.19776 4.6687 6.56473 3.77166 6.56473 3.20081C6.56473 2.50764 6.07543 2.32416 6.07543 1.89602C6.07543 1.48828 6.38124 1.22324 6.80938 1.22324C7.46177 1.22324 7.80836 1.89602 7.80836 2.4261C7.80836 4.26096 5.03568 8.39959 1.54944 10.5606C2.30377 12.3751 4.36289 13.476 6.62589 13.476C11.6412 13.476 14.6993 9.68399 14.6993 5.58614C14.6993 2.95617 12.9052 1.6106 11.682 1.6106C10.7441 1.6106 10.1937 2.14067 10.1937 2.83384C10.1937 3.18043 10.5403 3.3843 11.0907 3.3843C11.58 3.3843 11.9062 3.69011 11.9062 4.17941C11.9062 4.77064 11.4169 5.17839 10.8461 5.17839C10.0102 5.17839 9.41896 4.44444 9.41896 3.40469C9.41896 1.73292 10.9276 0.468909 12.5586 0.468909C14.8624 0.468909 16.6361 2.93578 18.4506 2.93578C18.8787 2.93578 19.2049 2.60958 19.2049 2.24261C19.2049 1.83486 18.8991 1.73292 18.4913 1.73292C17.9409 1.73292 17.5535 1.38634 17.5535 0.937818C17.5535 0.407747 17.9817 0 18.5117 0C19.4292 0 20 0.754332 20 1.79409C20 3.16004 18.7564 4.09786 17.7574 4.09786C16.8196 4.09786 15.5759 3.13965 14.5973 2.50764L14.5158 2.62997C15.1478 3.46585 15.5759 4.75025 15.5759 5.72885ZM1.24363 9.0316C1.24363 9.37818 1.2844 9.68399 1.36595 9.9898C2.60958 9.17431 3.77166 8.05301 4.6687 6.9317C4.54638 6.32008 4.13863 5.76962 3.50663 5.76962C2.14067 5.76962 1.24363 7.0948 1.24363 9.0316Z" fill="black"/>
</svg>
