<svg width="1130" height="400" viewBox="0 0 1130 400" fill="none" xmlns="http://www.w3.org/2000/svg">
<path fill-rule="evenodd" clip-rule="evenodd" d="M335.704 72.9221H73.7752V334.846H335.704V72.9221ZM68.4365 67.5812V340.187H341.042V67.5812H68.4365Z" fill="black"/>
<path d="M100.238 183.843V99.6903H134.847C138.403 99.6903 141.643 100.441 144.566 101.942C147.569 103.444 150.177 105.458 152.389 107.987C154.601 110.437 156.3 113.202 157.486 116.284C158.75 119.365 159.382 122.526 159.382 125.766C159.382 130.27 158.355 134.536 156.3 138.566C154.325 142.517 151.559 145.757 148.004 148.285C144.527 150.814 140.379 152.078 135.559 152.078H106.283V183.843H100.238ZM106.283 146.507H135.321C139.035 146.507 142.235 145.52 144.922 143.544C147.608 141.569 149.663 139.001 151.085 135.84C152.508 132.68 153.219 129.321 153.219 125.766C153.219 122.052 152.349 118.654 150.611 115.573C148.952 112.412 146.7 109.883 143.855 107.987C141.09 106.091 138.008 105.142 134.61 105.142H106.283V146.507Z" fill="black"/>
<path d="M274.573 225.801H279.788L315.345 309.953H308.945L297.211 282.219H257.031L245.297 309.953H238.778L274.573 225.801ZM295.551 277.24L277.18 233.149L258.453 277.24H295.551Z" fill="black"/>
<path d="M408.697 182.92V99.0286H443.136C446.675 99.0286 449.899 99.777 452.808 101.274C455.796 102.77 458.39 104.779 460.592 107.3C462.794 109.742 464.484 112.499 465.663 115.571C466.922 118.643 467.551 121.794 467.551 125.023C467.551 129.513 466.528 133.767 464.484 137.784C462.518 141.723 459.766 144.952 456.228 147.473C452.768 149.994 448.64 151.254 443.844 151.254H414.712V182.92H408.697ZM414.712 145.701H443.608C447.304 145.701 450.488 144.716 453.162 142.747C455.835 140.777 457.879 138.217 459.295 135.067C460.71 131.916 461.418 128.568 461.418 125.023C461.418 121.321 460.553 117.934 458.823 114.862C457.172 111.711 454.931 109.19 452.1 107.3C449.348 105.409 446.282 104.464 442.901 104.464H414.712V145.701Z" fill="black"/>
<path d="M509.195 126.796C503.691 126.953 498.856 128.607 494.688 131.758C490.6 134.83 487.73 139.084 486.079 144.519V182.92H480.181V121.478H485.843V136.603C487.966 132.27 490.796 128.765 494.335 126.087C497.873 123.33 501.608 121.754 505.539 121.36C506.325 121.282 507.033 121.242 507.662 121.242C508.291 121.242 508.802 121.242 509.195 121.242V126.796Z" fill="black"/>
<path d="M543.786 184.102C539.462 184.102 535.452 183.275 531.756 181.62C528.139 179.966 524.994 177.682 522.321 174.767C519.648 171.774 517.564 168.347 516.07 164.488C514.576 160.628 513.829 156.571 513.829 152.317C513.829 147.985 514.576 143.928 516.07 140.147C517.564 136.287 519.648 132.9 522.321 129.986C525.073 126.992 528.257 124.669 531.874 123.015C535.57 121.282 539.54 120.415 543.786 120.415C548.032 120.415 551.964 121.282 555.581 123.015C559.198 124.669 562.382 126.992 565.134 129.986C567.886 132.9 570.009 136.287 571.503 140.147C572.997 143.928 573.744 147.985 573.744 152.317C573.744 156.571 572.997 160.628 571.503 164.488C570.009 168.347 567.886 171.774 565.134 174.767C562.461 177.682 559.276 179.966 555.581 181.62C551.964 183.275 548.032 184.102 543.786 184.102ZM519.726 152.554C519.726 157.359 520.788 161.77 522.911 165.787C525.112 169.726 528.021 172.877 531.638 175.24C535.255 177.603 539.265 178.785 543.668 178.785C548.072 178.785 552.082 177.603 555.699 175.24C559.394 172.798 562.303 169.568 564.426 165.551C566.628 161.455 567.729 157.004 567.729 152.199C567.729 147.394 566.628 142.983 564.426 138.966C562.303 134.948 559.394 131.758 555.699 129.395C552.082 126.953 548.111 125.732 543.786 125.732C539.383 125.732 535.373 126.953 531.756 129.395C528.139 131.837 525.23 135.067 523.029 139.084C520.827 143.101 519.726 147.591 519.726 152.554Z" fill="black"/>
<path d="M614.429 179.966C614.036 180.124 613.25 180.518 612.07 181.148C610.891 181.778 609.397 182.369 607.589 182.92C605.78 183.393 603.775 183.629 601.574 183.629C599.451 183.629 597.446 183.235 595.558 182.447C593.75 181.581 592.295 180.321 591.195 178.666C590.094 177.012 589.543 175.004 589.543 172.64V126.323H580.934V121.478H589.543V100.447H595.441V121.478H609.712V126.323H595.441V171.223C595.598 173.507 596.423 175.24 597.917 176.421C599.411 177.524 601.141 178.076 603.107 178.076C605.544 178.076 607.667 177.682 609.476 176.894C611.284 176.028 612.346 175.476 612.66 175.24L614.429 179.966Z" fill="black"/>
<path d="M649.759 184.102C645.434 184.102 641.424 183.275 637.728 181.62C634.033 179.887 630.809 177.564 628.057 174.649C625.384 171.656 623.261 168.229 621.688 164.369C620.194 160.431 619.447 156.295 619.447 151.963C619.447 146.134 620.745 140.856 623.339 136.13C625.934 131.404 629.512 127.623 634.072 124.787C638.633 121.872 643.743 120.415 649.405 120.415C655.223 120.415 660.373 121.872 664.855 124.787C669.337 127.701 672.875 131.561 675.47 136.366C678.143 141.093 679.48 146.291 679.48 151.963C679.48 152.436 679.48 152.908 679.48 153.381C679.48 153.853 679.441 154.247 679.362 154.562H625.58C625.895 159.21 627.192 163.424 629.472 167.205C631.753 170.986 634.662 173.98 638.2 176.185C641.817 178.312 645.748 179.375 649.994 179.375C654.24 179.375 658.25 178.273 662.025 176.067C665.799 173.861 668.433 171.026 669.927 167.56L675.116 168.978C673.937 171.892 672.05 174.492 669.455 176.776C666.939 179.06 663.951 180.872 660.491 182.211C657.11 183.471 653.533 184.102 649.759 184.102ZM625.344 149.954H673.819C673.504 145.149 672.246 140.896 670.045 137.193C667.843 133.491 664.934 130.577 661.317 128.45C657.779 126.323 653.847 125.259 649.523 125.259C645.198 125.259 641.267 126.323 637.728 128.45C634.19 130.577 631.32 133.491 629.119 137.193C626.917 140.896 625.659 145.149 625.344 149.954Z" fill="black"/>
<path d="M718.52 184.102C714.274 184.102 710.303 183.275 706.608 181.62C702.912 179.887 699.688 177.564 696.936 174.649C694.184 171.656 692.022 168.229 690.45 164.369C688.956 160.51 688.209 156.374 688.209 151.963C688.209 146.055 689.506 140.738 692.101 136.012C694.695 131.285 698.273 127.504 702.833 124.669C707.394 121.833 712.583 120.415 718.402 120.415C723.984 120.415 728.899 121.715 733.145 124.314C737.391 126.835 740.575 130.301 742.698 134.712L736.919 136.603C735.11 133.215 732.516 130.577 729.135 128.686C725.832 126.717 722.176 125.732 718.166 125.732C713.684 125.732 709.635 126.874 706.018 129.159C702.401 131.443 699.492 134.594 697.29 138.611C695.167 142.55 694.106 147 694.106 151.963C694.106 156.847 695.207 161.337 697.408 165.433C699.61 169.529 702.519 172.798 706.136 175.24C709.831 177.603 713.881 178.785 718.284 178.785C721.115 178.785 723.866 178.273 726.54 177.249C729.292 176.146 731.651 174.728 733.616 172.995C735.661 171.262 736.997 169.411 737.626 167.442L743.406 169.096C742.383 172.01 740.614 174.61 738.098 176.894C735.582 179.1 732.634 180.872 729.253 182.211C725.95 183.471 722.373 184.102 718.52 184.102Z" fill="black"/>
<path d="M784.086 179.966C783.693 180.124 782.907 180.518 781.728 181.148C780.548 181.778 779.054 182.369 777.246 182.92C775.437 183.393 773.432 183.629 771.231 183.629C769.108 183.629 767.103 183.235 765.216 182.447C763.407 181.581 761.953 180.321 760.852 178.666C759.751 177.012 759.201 175.004 759.201 172.64V126.323H750.591V121.478H759.201V100.447H765.098V121.478H779.369V126.323H765.098V171.223C765.255 173.507 766.081 175.24 767.575 176.421C769.069 177.524 770.798 178.076 772.764 178.076C775.201 178.076 777.324 177.682 779.133 176.894C780.941 176.028 782.003 175.476 782.317 175.24L784.086 179.966Z" fill="black"/>
<path d="M794.502 182.92V121.478H800.399V182.92H794.502ZM794.502 107.536V96.6655H800.399V107.536H794.502Z" fill="black"/>
<path d="M844.631 184.102C840.307 184.102 836.297 183.275 832.601 181.62C828.984 179.966 825.839 177.682 823.166 174.767C820.493 171.774 818.409 168.347 816.915 164.488C815.421 160.628 814.674 156.571 814.674 152.317C814.674 147.985 815.421 143.928 816.915 140.147C818.409 136.287 820.493 132.9 823.166 129.986C825.918 126.992 829.102 124.669 832.719 123.015C836.415 121.282 840.386 120.415 844.631 120.415C848.877 120.415 852.809 121.282 856.426 123.015C860.043 124.669 863.227 126.992 865.979 129.986C868.731 132.9 870.854 136.287 872.348 140.147C873.842 143.928 874.589 147.985 874.589 152.317C874.589 156.571 873.842 160.628 872.348 164.488C870.854 168.347 868.731 171.774 865.979 174.767C863.306 177.682 860.121 179.966 856.426 181.62C852.809 183.275 848.877 184.102 844.631 184.102ZM820.571 152.554C820.571 157.359 821.633 161.77 823.756 165.787C825.957 169.726 828.866 172.877 832.483 175.24C836.1 177.603 840.11 178.785 844.514 178.785C848.917 178.785 852.927 177.603 856.544 175.24C860.239 172.798 863.148 169.568 865.271 165.551C867.473 161.455 868.574 157.004 868.574 152.199C868.574 147.394 867.473 142.983 865.271 138.966C863.148 134.948 860.239 131.758 856.544 129.395C852.927 126.953 848.956 125.732 844.631 125.732C840.228 125.732 836.218 126.953 832.601 129.395C828.984 131.837 826.075 135.067 823.874 139.084C821.672 143.101 820.571 147.591 820.571 152.554Z" fill="black"/>
<path d="M938.843 182.92H932.946V148.655C932.946 140.777 931.806 135.027 929.526 131.404C927.324 127.701 923.786 125.85 918.911 125.85C915.451 125.85 912.031 126.677 908.65 128.332C905.348 129.986 902.439 132.27 899.922 135.185C897.485 138.02 895.716 141.25 894.615 144.874V182.92H888.718V121.478H894.261V136.13C895.912 132.979 898.114 130.261 900.866 127.977C903.618 125.614 906.684 123.763 910.065 122.424C913.446 121.085 916.945 120.415 920.562 120.415C923.943 120.415 926.774 121.045 929.054 122.306C931.413 123.487 933.3 125.22 934.715 127.504C936.209 129.789 937.271 132.625 937.9 136.012C938.529 139.399 938.843 143.259 938.843 147.591V182.92Z" fill="black"/>
<path d="M434.998 224.742H440.188L475.571 308.633H469.202L457.525 280.985H417.543L405.867 308.633H399.38L434.998 224.742ZM455.874 276.022L437.593 232.068L418.958 276.022H455.874Z" fill="black"/>
<path d="M516.474 309.815C511.205 309.815 506.488 308.436 502.32 305.679C498.232 302.844 494.929 299.417 492.413 295.4V333.801H486.516V247.192H491.942V259.48C494.458 255.541 497.799 252.351 501.967 249.909C506.134 247.389 510.537 246.128 515.176 246.128C519.501 246.128 523.432 247.034 526.97 248.846C530.509 250.579 533.575 252.981 536.17 256.053C538.843 259.047 540.888 262.434 542.303 266.215C543.797 269.996 544.544 273.935 544.544 278.031C544.544 283.702 543.364 288.98 541.006 293.864C538.647 298.669 535.344 302.528 531.098 305.443C526.931 308.358 522.056 309.815 516.474 309.815ZM515.058 304.498C518.675 304.498 521.899 303.749 524.73 302.253C527.639 300.756 530.116 298.747 532.16 296.227C534.204 293.706 535.777 290.87 536.878 287.719C537.978 284.569 538.529 281.339 538.529 278.031C538.529 274.486 537.9 271.138 536.642 267.987C535.384 264.758 533.614 261.922 531.334 259.48C529.133 257.038 526.538 255.108 523.55 253.69C520.641 252.194 517.456 251.445 513.997 251.445C511.874 251.445 509.594 251.879 507.156 252.745C504.797 253.611 502.517 254.832 500.315 256.408C498.192 257.983 496.423 259.795 495.008 261.843C493.593 263.812 492.728 265.86 492.413 267.987V288.192C493.829 291.185 495.637 293.942 497.839 296.463C500.119 298.905 502.753 300.874 505.741 302.371C508.729 303.789 511.834 304.498 515.058 304.498Z" fill="black"/>
<path d="M588.69 309.815C583.422 309.815 578.704 308.436 574.537 305.679C570.448 302.844 567.146 299.417 564.63 295.4V333.801H558.733V247.192H564.158V259.48C566.674 255.541 570.016 252.351 574.183 249.909C578.351 247.389 582.754 246.128 587.393 246.128C591.717 246.128 595.649 247.034 599.187 248.846C602.725 250.579 605.792 252.981 608.387 256.053C611.06 259.047 613.104 262.434 614.52 266.215C616.013 269.996 616.76 273.935 616.76 278.031C616.76 283.702 615.581 288.98 613.222 293.864C610.863 298.669 607.561 302.528 603.315 305.443C599.148 308.358 594.273 309.815 588.69 309.815ZM587.275 304.498C590.892 304.498 594.116 303.749 596.946 302.253C599.855 300.756 602.332 298.747 604.377 296.227C606.421 293.706 607.993 290.87 609.094 287.719C610.195 284.569 610.745 281.339 610.745 278.031C610.745 274.486 610.116 271.138 608.858 267.987C607.6 264.758 605.831 261.922 603.551 259.48C601.349 257.038 598.755 255.108 595.767 253.69C592.857 252.194 589.673 251.445 586.213 251.445C584.09 251.445 581.81 251.879 579.373 252.745C577.014 253.611 574.734 254.832 572.532 256.408C570.409 257.983 568.64 259.795 567.225 261.843C565.809 263.812 564.944 265.86 564.63 267.987V288.192C566.045 291.185 567.854 293.942 570.055 296.463C572.336 298.905 574.97 300.874 577.957 302.371C580.945 303.789 584.051 304.498 587.275 304.498Z" fill="black"/>
<path d="M659.963 252.509C654.459 252.666 649.624 254.32 645.456 257.471C641.368 260.543 638.498 264.797 636.847 270.232V308.633H630.949V247.192H636.611V262.316C638.734 257.983 641.564 254.478 645.103 251.8C648.641 249.043 652.376 247.467 656.307 247.073C657.093 246.995 657.801 246.955 658.43 246.955C659.059 246.955 659.57 246.955 659.963 246.955V252.509Z" fill="black"/>
<path d="M694.554 309.815C690.23 309.815 686.22 308.988 682.524 307.334C678.907 305.679 675.762 303.395 673.089 300.48C670.416 297.487 668.332 294.061 666.838 290.201C665.344 286.341 664.597 282.284 664.597 278.031C664.597 273.698 665.344 269.641 666.838 265.86C668.332 262.001 670.416 258.613 673.089 255.699C675.841 252.706 679.025 250.382 682.642 248.728C686.338 246.995 690.309 246.128 694.554 246.128C698.8 246.128 702.732 246.995 706.349 248.728C709.966 250.382 713.15 252.706 715.902 255.699C718.654 258.613 720.777 262.001 722.271 265.86C723.765 269.641 724.512 273.698 724.512 278.031C724.512 282.284 723.765 286.341 722.271 290.201C720.777 294.061 718.654 297.487 715.902 300.48C713.229 303.395 710.044 305.679 706.349 307.334C702.732 308.988 698.8 309.815 694.554 309.815ZM670.494 278.267C670.494 283.072 671.556 287.483 673.679 291.5C675.88 295.439 678.79 298.59 682.406 300.953C686.023 303.316 690.033 304.498 694.437 304.498C698.84 304.498 702.85 303.316 706.467 300.953C710.162 298.511 713.071 295.282 715.194 291.264C717.396 287.168 718.497 282.718 718.497 277.912C718.497 273.107 717.396 268.696 715.194 264.679C713.071 260.662 710.162 257.471 706.467 255.108C702.85 252.666 698.879 251.445 694.554 251.445C690.151 251.445 686.141 252.666 682.524 255.108C678.907 257.55 675.998 260.78 673.797 264.797C671.595 268.814 670.494 273.304 670.494 278.267Z" fill="black"/>
<path d="M733.569 290.91C733.569 287.207 734.67 284.017 736.872 281.339C739.073 278.582 742.101 276.455 745.953 274.959C749.806 273.383 754.249 272.595 759.281 272.595C762.426 272.595 765.689 272.871 769.07 273.422C772.451 273.974 775.478 274.722 778.152 275.667V269.878C778.152 264.206 776.5 259.677 773.198 256.29C769.974 252.903 765.492 251.209 759.753 251.209C756.686 251.209 753.502 251.839 750.199 253.099C746.897 254.36 743.516 256.172 740.056 258.535L737.579 254.281C741.59 251.603 745.442 249.594 749.138 248.255C752.912 246.837 756.647 246.128 760.342 246.128C767.655 246.128 773.434 248.294 777.68 252.627C781.926 256.959 784.049 262.867 784.049 270.35V300.835C784.049 301.78 784.245 302.489 784.638 302.962C785.11 303.434 785.779 303.71 786.643 303.789V308.633C785.936 308.712 785.346 308.751 784.874 308.751C784.403 308.751 784.009 308.751 783.695 308.751C782.201 308.515 781.022 307.885 780.157 306.861C779.37 305.837 778.938 304.695 778.859 303.434V298.59C776.029 302.135 772.372 304.892 767.891 306.861C763.487 308.83 758.848 309.815 753.973 309.815C750.121 309.815 746.622 308.988 743.477 307.334C740.41 305.679 737.973 303.434 736.164 300.599C734.434 297.684 733.569 294.454 733.569 290.91ZM775.793 295.99C776.579 294.966 777.169 293.982 777.562 293.037C777.955 292.091 778.152 291.225 778.152 290.437V280.276C775.321 279.173 772.372 278.346 769.306 277.794C766.239 277.243 763.094 276.967 759.871 276.967C753.738 276.967 748.745 278.188 744.892 280.63C741.118 283.072 739.231 286.38 739.231 290.555C739.231 293.155 739.899 295.557 741.236 297.763C742.572 299.968 744.42 301.741 746.779 303.08C749.216 304.419 752.008 305.089 755.153 305.089C759.556 305.089 763.605 304.261 767.301 302.607C771.075 300.874 773.906 298.669 775.793 295.99Z" fill="black"/>
<path d="M828.054 309.815C823.808 309.815 819.837 308.988 816.142 307.334C812.446 305.601 809.223 303.277 806.471 300.362C803.719 297.369 801.556 293.942 799.984 290.083C798.49 286.223 797.743 282.087 797.743 277.676C797.743 271.768 799.04 266.451 801.635 261.725C804.23 256.999 807.807 253.218 812.368 250.382C816.928 247.546 822.118 246.128 827.936 246.128C833.519 246.128 838.433 247.428 842.679 250.027C846.925 252.548 850.109 256.014 852.232 260.425L846.453 262.316C844.645 258.929 842.05 256.29 838.669 254.399C835.367 252.43 831.71 251.445 827.7 251.445C823.218 251.445 819.169 252.587 815.552 254.872C811.935 257.156 809.026 260.307 806.824 264.324C804.702 268.263 803.64 272.714 803.64 277.676C803.64 282.56 804.741 287.05 806.942 291.146C809.144 295.242 812.053 298.511 815.67 300.953C819.366 303.316 823.415 304.498 827.818 304.498C830.649 304.498 833.401 303.986 836.074 302.962C838.826 301.859 841.185 300.441 843.151 298.708C845.195 296.975 846.532 295.124 847.161 293.155L852.94 294.809C851.918 297.723 850.149 300.323 847.633 302.607C845.116 304.813 842.168 306.585 838.787 307.924C835.484 309.185 831.907 309.815 828.054 309.815Z" fill="black"/>
<path d="M916.384 308.633H910.487V274.368C910.487 266.806 909.189 261.134 906.594 257.353C904 253.493 900.226 251.563 895.272 251.563C892.048 251.563 888.825 252.391 885.601 254.045C882.377 255.699 879.586 257.983 877.227 260.898C874.868 263.734 873.177 266.963 872.155 270.587V308.633H866.258V222.379H872.155V261.843C874.671 257.038 878.17 253.218 882.652 250.382C887.134 247.546 891.891 246.128 896.923 246.128C900.383 246.128 903.331 246.758 905.769 248.019C908.206 249.279 910.211 251.091 911.784 253.454C913.356 255.817 914.497 258.653 915.204 261.961C915.991 265.27 916.384 269.051 916.384 273.304V308.633Z" fill="black"/>
<path d="M960.279 309.815C955.954 309.815 951.944 308.988 948.248 307.334C944.553 305.601 941.329 303.277 938.577 300.362C935.904 297.369 933.781 293.942 932.208 290.083C930.714 286.144 929.967 282.009 929.967 277.676C929.967 271.847 931.265 266.569 933.859 261.843C936.454 257.117 940.032 253.336 944.592 250.5C949.153 247.585 954.263 246.128 959.925 246.128C965.743 246.128 970.893 247.585 975.375 250.5C979.857 253.415 983.395 257.274 985.99 262.079C988.663 266.806 990 272.005 990 277.676C990 278.149 990 278.621 990 279.094C990 279.567 989.961 279.961 989.882 280.276H936.1C936.415 284.923 937.712 289.137 939.992 292.918C942.273 296.699 945.182 299.693 948.72 301.898C952.337 304.025 956.268 305.089 960.514 305.089C964.76 305.089 968.77 303.986 972.544 301.78C976.319 299.575 978.953 296.739 980.447 293.273L985.636 294.691C984.457 297.605 982.57 300.205 979.975 302.489C977.459 304.773 974.471 306.585 971.011 307.924C967.63 309.185 964.053 309.815 960.279 309.815ZM935.864 275.667H984.339C984.024 270.862 982.766 266.609 980.565 262.907C978.363 259.204 975.454 256.29 971.837 254.163C968.299 252.036 964.367 250.973 960.043 250.973C955.718 250.973 951.787 252.036 948.248 254.163C944.71 256.29 941.84 259.204 939.639 262.907C937.437 266.609 936.179 270.862 935.864 275.667Z" fill="black"/>
<path d="M1022.32 309.815C1017.44 309.815 1012.92 308.988 1008.75 307.334C1004.59 305.679 1000.93 303.159 997.785 299.771L1000.5 295.636C1003.88 298.866 1007.3 301.229 1010.76 302.725C1014.22 304.143 1017.99 304.852 1022.08 304.852C1027.35 304.852 1031.6 303.749 1034.82 301.544C1038.12 299.338 1039.77 296.266 1039.77 292.328C1039.77 289.649 1038.99 287.601 1037.41 286.183C1035.92 284.687 1033.72 283.505 1030.81 282.639C1027.98 281.693 1024.52 280.709 1020.43 279.685C1016.26 278.582 1012.72 277.44 1009.82 276.258C1006.98 275.077 1004.86 273.541 1003.45 271.65C1002.03 269.76 1001.32 267.2 1001.32 263.97C1001.32 259.953 1002.31 256.644 1004.27 254.045C1006.32 251.367 1009.03 249.397 1012.41 248.137C1015.87 246.798 1019.68 246.128 1023.85 246.128C1028.65 246.128 1032.81 246.916 1036.35 248.491C1039.97 250.067 1042.72 252.154 1044.61 254.754L1041.42 258.535C1039.46 256.014 1036.9 254.163 1033.76 252.981C1030.61 251.721 1027.15 251.091 1023.38 251.091C1020.55 251.091 1017.87 251.485 1015.36 252.272C1012.84 253.06 1010.8 254.36 1009.23 256.172C1007.73 257.905 1006.98 260.268 1006.98 263.261C1006.98 265.624 1007.53 267.475 1008.64 268.814C1009.82 270.153 1011.54 271.256 1013.83 272.123C1016.11 272.91 1018.94 273.777 1022.32 274.722C1027.11 275.904 1031.24 277.125 1034.7 278.385C1038.16 279.645 1040.83 281.3 1042.72 283.348C1044.61 285.317 1045.55 288.113 1045.55 291.737C1045.55 297.33 1043.43 301.741 1039.18 304.97C1034.94 308.2 1029.31 309.815 1022.32 309.815Z" fill="black"/>
<path fill-rule="evenodd" clip-rule="evenodd" d="M335.108 72.9222H73.7633V334.849H335.108V72.9222ZM68.4365 67.5812V340.19H340.435V67.5812H68.4365Z" fill="black"/>
<path d="M100.451 183.273V99.1202H134.983C138.531 99.1202 141.763 99.8709 144.68 101.372C147.676 102.874 150.278 104.888 152.486 107.417C154.693 109.867 156.388 112.632 157.571 115.714C158.832 118.795 159.463 121.956 159.463 125.196C159.463 129.7 158.438 133.967 156.388 137.997C154.417 141.947 151.658 145.187 148.11 147.716C144.641 150.244 140.502 151.509 135.693 151.509H106.482V183.273H100.451ZM106.482 145.938H135.456C139.162 145.938 142.355 144.95 145.035 142.975C147.716 140.999 149.766 138.431 151.185 135.271C152.604 132.11 153.313 128.752 153.313 125.196C153.313 121.482 152.446 118.084 150.712 115.003C149.056 111.842 146.809 109.313 143.971 107.417C141.212 105.521 138.137 104.572 134.747 104.572H106.482V145.938Z" fill="black"/>
<path d="M274.397 225.232H279.601L315.079 309.385H308.693L296.985 281.65H256.895L245.187 309.385H238.683L274.397 225.232ZM295.329 276.672L276.999 232.581L258.314 276.672H295.329Z" fill="black"/>
</svg>
