<svg width="1130" height="400" viewBox="0 0 1130 400" fill="none" xmlns="http://www.w3.org/2000/svg">
<rect width="1130" height="400" fill="white"/>
<path fill-rule="evenodd" clip-rule="evenodd" d="M335.703 72.9221H73.7747V334.846H335.703V72.9221ZM68.436 67.5812V340.187H341.042V67.5812H68.436Z" fill="black"/>
<path d="M100.238 183.843V99.6903H134.847C138.403 99.6903 141.643 100.441 144.566 101.942C147.569 103.444 150.177 105.458 152.389 107.987C154.601 110.437 156.3 113.202 157.486 116.284C158.75 119.365 159.382 122.526 159.382 125.766C159.382 130.27 158.355 134.536 156.3 138.566C154.325 142.517 151.559 145.757 148.004 148.285C144.527 150.814 140.379 152.078 135.559 152.078H106.283V183.843H100.238ZM106.283 146.507H135.321C139.035 146.507 142.235 145.52 144.922 143.544C147.608 141.569 149.663 139.001 151.085 135.84C152.508 132.68 153.219 129.321 153.219 125.766C153.219 122.052 152.349 118.654 150.611 115.573C148.952 112.412 146.7 109.883 143.855 107.987C141.09 106.091 138.008 105.142 134.61 105.142H106.283V146.507Z" fill="black"/>
<path d="M274.573 225.801H279.788L315.345 309.953H308.945L297.211 282.219H257.032L245.298 309.953H238.779L274.573 225.801ZM295.552 277.24L277.181 233.149L258.454 277.24H295.552Z" fill="black"/>
<path d="M408.697 182.92V99.0286H443.136C446.674 99.0286 449.898 99.777 452.807 101.274C455.795 102.77 458.39 104.779 460.591 107.3C462.793 109.742 464.484 112.499 465.663 115.571C466.921 118.643 467.55 121.794 467.55 125.023C467.55 129.513 466.528 133.767 464.484 137.784C462.518 141.723 459.766 144.952 456.228 147.473C452.768 149.994 448.64 151.254 443.844 151.254H414.712V182.92H408.697ZM414.712 145.701H443.608C447.303 145.701 450.488 144.716 453.161 142.747C455.834 140.777 457.879 138.217 459.294 135.067C460.709 131.916 461.417 128.568 461.417 125.023C461.417 121.321 460.552 117.934 458.822 114.862C457.171 111.711 454.93 109.19 452.1 107.3C449.348 105.409 446.281 104.464 442.9 104.464H414.712V145.701Z" fill="black"/>
<path d="M509.195 126.796C503.691 126.953 498.855 128.607 494.688 131.758C490.599 134.83 487.729 139.084 486.078 144.519V182.92H480.181V121.478H485.842V136.603C487.965 132.27 490.796 128.765 494.334 126.087C497.872 123.33 501.607 121.754 505.539 121.36C506.325 121.282 507.032 121.242 507.661 121.242C508.291 121.242 508.802 121.242 509.195 121.242V126.796Z" fill="black"/>
<path d="M543.786 184.102C539.461 184.102 535.451 183.275 531.756 181.62C528.139 179.966 524.994 177.682 522.32 174.767C519.647 171.774 517.563 168.347 516.069 164.488C514.576 160.628 513.829 156.571 513.829 152.317C513.829 147.985 514.576 143.928 516.069 140.147C517.563 136.287 519.647 132.9 522.32 129.986C525.072 126.992 528.257 124.669 531.874 123.015C535.569 121.282 539.54 120.415 543.786 120.415C548.032 120.415 551.963 121.282 555.58 123.015C559.197 124.669 562.382 126.992 565.133 129.986C567.885 132.9 570.008 136.287 571.502 140.147C572.996 143.928 573.743 147.985 573.743 152.317C573.743 156.571 572.996 160.628 571.502 164.488C570.008 168.347 567.885 171.774 565.133 174.767C562.46 177.682 559.276 179.966 555.58 181.62C551.963 183.275 548.032 184.102 543.786 184.102ZM519.726 152.554C519.726 157.359 520.787 161.77 522.91 165.787C525.112 169.726 528.021 172.877 531.638 175.24C535.255 177.603 539.265 178.785 543.668 178.785C548.071 178.785 552.081 177.603 555.698 175.24C559.394 172.798 562.303 169.568 564.426 165.551C566.627 161.455 567.728 157.004 567.728 152.199C567.728 147.394 566.627 142.983 564.426 138.966C562.303 134.948 559.394 131.758 555.698 129.395C552.081 126.953 548.11 125.732 543.786 125.732C539.383 125.732 535.373 126.953 531.756 129.395C528.139 131.837 525.23 135.067 523.028 139.084C520.826 143.101 519.726 147.591 519.726 152.554Z" fill="black"/>
<path d="M614.429 179.966C614.036 180.124 613.249 180.518 612.07 181.148C610.89 181.778 609.397 182.369 607.588 182.92C605.78 183.393 603.775 183.629 601.573 183.629C599.45 183.629 597.445 183.235 595.558 182.447C593.75 181.581 592.295 180.321 591.194 178.666C590.093 177.012 589.543 175.004 589.543 172.64V126.323H580.933V121.478H589.543V100.447H595.44V121.478H609.711V126.323H595.44V171.223C595.597 173.507 596.423 175.24 597.917 176.421C599.411 177.524 601.141 178.076 603.106 178.076C605.544 178.076 607.667 177.682 609.475 176.894C611.284 176.028 612.345 175.476 612.66 175.24L614.429 179.966Z" fill="black"/>
<path d="M649.758 184.102C645.433 184.102 641.423 183.275 637.728 181.62C634.032 179.887 630.809 177.564 628.057 174.649C625.383 171.656 623.26 168.229 621.688 164.369C620.194 160.431 619.447 156.295 619.447 151.963C619.447 146.134 620.744 140.856 623.339 136.13C625.934 131.404 629.511 127.623 634.072 124.787C638.632 121.872 643.743 120.415 649.404 120.415C655.223 120.415 660.373 121.872 664.855 124.787C669.336 127.701 672.875 131.561 675.469 136.366C678.143 141.093 679.479 146.291 679.479 151.963C679.479 152.436 679.479 152.908 679.479 153.381C679.479 153.853 679.44 154.247 679.362 154.562H625.58C625.894 159.21 627.192 163.424 629.472 167.205C631.752 170.986 634.661 173.98 638.2 176.185C641.817 178.312 645.748 179.375 649.994 179.375C654.24 179.375 658.25 178.273 662.024 176.067C665.798 173.861 668.432 171.026 669.926 167.56L675.116 168.978C673.936 171.892 672.049 174.492 669.454 176.776C666.938 179.06 663.95 180.872 660.491 182.211C657.11 183.471 653.532 184.102 649.758 184.102ZM625.344 149.954H673.818C673.504 145.149 672.246 140.896 670.044 137.193C667.843 133.491 664.933 130.577 661.316 128.45C657.778 126.323 653.847 125.259 649.522 125.259C645.198 125.259 641.266 126.323 637.728 128.45C634.19 130.577 631.32 133.491 629.118 137.193C626.917 140.896 625.658 145.149 625.344 149.954Z" fill="black"/>
<path d="M718.519 184.102C714.273 184.102 710.303 183.275 706.607 181.62C702.912 179.887 699.688 177.564 696.936 174.649C694.184 171.656 692.022 168.229 690.449 164.369C688.955 160.51 688.208 156.374 688.208 151.963C688.208 146.055 689.505 140.738 692.1 136.012C694.695 131.285 698.273 127.504 702.833 124.669C707.393 121.833 712.583 120.415 718.401 120.415C723.984 120.415 728.898 121.715 733.144 124.314C737.39 126.835 740.575 130.301 742.697 134.712L736.918 136.603C735.11 133.215 732.515 130.577 729.134 128.686C725.832 126.717 722.175 125.732 718.165 125.732C713.684 125.732 709.634 126.874 706.017 129.159C702.401 131.443 699.491 134.594 697.29 138.611C695.167 142.55 694.105 147 694.105 151.963C694.105 156.847 695.206 161.337 697.408 165.433C699.609 169.529 702.518 172.798 706.135 175.24C709.831 177.603 713.88 178.785 718.283 178.785C721.114 178.785 723.866 178.273 726.539 177.249C729.291 176.146 731.65 174.728 733.616 172.995C735.66 171.262 736.997 169.411 737.626 167.442L743.405 169.096C742.383 172.01 740.614 174.61 738.098 176.894C735.582 179.1 732.633 180.872 729.252 182.211C725.95 183.471 722.372 184.102 718.519 184.102Z" fill="black"/>
<path d="M784.086 179.966C783.693 180.124 782.907 180.518 781.727 181.148C780.548 181.778 779.054 182.369 777.245 182.92C775.437 183.393 773.432 183.629 771.23 183.629C769.107 183.629 767.102 183.235 765.215 182.447C763.407 181.581 761.952 180.321 760.851 178.666C759.751 177.012 759.2 175.004 759.2 172.64V126.323H750.59V121.478H759.2V100.447H765.097V121.478H779.368V126.323H765.097V171.223C765.255 173.507 766.08 175.24 767.574 176.421C769.068 177.524 770.798 178.076 772.764 178.076C775.201 178.076 777.324 177.682 779.132 176.894C780.941 176.028 782.002 175.476 782.317 175.24L784.086 179.966Z" fill="black"/>
<path d="M794.502 182.92V121.478H800.399V182.92H794.502ZM794.502 107.536V96.6655H800.399V107.536H794.502Z" fill="black"/>
<path d="M844.631 184.102C840.306 184.102 836.296 183.275 832.601 181.62C828.984 179.966 825.839 177.682 823.165 174.767C820.492 171.774 818.408 168.347 816.915 164.488C815.421 160.628 814.674 156.571 814.674 152.317C814.674 147.985 815.421 143.928 816.915 140.147C818.408 136.287 820.492 132.9 823.165 129.986C825.917 126.992 829.102 124.669 832.719 123.015C836.414 121.282 840.385 120.415 844.631 120.415C848.877 120.415 852.808 121.282 856.425 123.015C860.042 124.669 863.227 126.992 865.979 129.986C868.731 132.9 870.853 136.287 872.347 140.147C873.841 143.928 874.588 147.985 874.588 152.317C874.588 156.571 873.841 160.628 872.347 164.488C870.853 168.347 868.731 171.774 865.979 174.767C863.305 177.682 860.121 179.966 856.425 181.62C852.808 183.275 848.877 184.102 844.631 184.102ZM820.571 152.554C820.571 157.359 821.632 161.77 823.755 165.787C825.957 169.726 828.866 172.877 832.483 175.24C836.1 177.603 840.11 178.785 844.513 178.785C848.916 178.785 852.926 177.603 856.543 175.24C860.239 172.798 863.148 169.568 865.271 165.551C867.472 161.455 868.573 157.004 868.573 152.199C868.573 147.394 867.472 142.983 865.271 138.966C863.148 134.948 860.239 131.758 856.543 129.395C852.926 126.953 848.956 125.732 844.631 125.732C840.228 125.732 836.218 126.953 832.601 129.395C828.984 131.837 826.075 135.067 823.873 139.084C821.672 143.101 820.571 147.591 820.571 152.554Z" fill="black"/>
<path d="M938.843 182.92H932.946V148.655C932.946 140.777 931.806 135.027 929.525 131.404C927.324 127.701 923.786 125.85 918.911 125.85C915.451 125.85 912.031 126.677 908.65 128.332C905.347 129.986 902.438 132.27 899.922 135.185C897.484 138.02 895.715 141.25 894.615 144.874V182.92H888.717V121.478H894.261V136.13C895.912 132.979 898.113 130.261 900.865 127.977C903.617 125.614 906.684 123.763 910.065 122.424C913.446 121.085 916.945 120.415 920.562 120.415C923.943 120.415 926.773 121.045 929.054 122.306C931.413 123.487 933.3 125.22 934.715 127.504C936.209 129.789 937.27 132.625 937.899 136.012C938.528 139.399 938.843 143.259 938.843 147.591V182.92Z" fill="black"/>
<path d="M434.998 224.742H440.187L475.57 308.633H469.201L457.525 280.985H417.543L405.866 308.633H399.379L434.998 224.742ZM455.874 276.022L437.593 232.068L418.958 276.022H455.874Z" fill="black"/>
<path d="M516.473 309.815C511.205 309.815 506.487 308.436 502.32 305.679C498.231 302.844 494.929 299.417 492.413 295.4V333.801H486.516V247.192H491.941V259.48C494.457 255.541 497.799 252.351 501.966 249.909C506.133 247.389 510.537 246.128 515.176 246.128C519.5 246.128 523.432 247.034 526.97 248.846C530.508 250.579 533.575 252.981 536.169 256.053C538.843 259.047 540.887 262.434 542.302 266.215C543.796 269.996 544.543 273.935 544.543 278.031C544.543 283.702 543.364 288.98 541.005 293.864C538.646 298.669 535.344 302.528 531.098 305.443C526.931 308.358 522.056 309.815 516.473 309.815ZM515.058 304.498C518.675 304.498 521.898 303.749 524.729 302.253C527.638 300.756 530.115 298.747 532.159 296.227C534.204 293.706 535.776 290.87 536.877 287.719C537.978 284.569 538.528 281.339 538.528 278.031C538.528 274.486 537.899 271.138 536.641 267.987C535.383 264.758 533.614 261.922 531.334 259.48C529.132 257.038 526.537 255.108 523.55 253.69C520.64 252.194 517.456 251.445 513.996 251.445C511.873 251.445 509.593 251.879 507.156 252.745C504.797 253.611 502.517 254.832 500.315 256.408C498.192 257.983 496.423 259.795 495.008 261.843C493.592 263.812 492.727 265.86 492.413 267.987V288.192C493.828 291.185 495.637 293.942 497.838 296.463C500.118 298.905 502.752 300.874 505.74 302.371C508.728 303.789 511.834 304.498 515.058 304.498Z" fill="black"/>
<path d="M588.69 309.815C583.422 309.815 578.704 308.436 574.537 305.679C570.448 302.844 567.146 299.417 564.629 295.4V333.801H558.732V247.192H564.158V259.48C566.674 255.541 570.015 252.351 574.183 249.909C578.35 247.389 582.753 246.128 587.392 246.128C591.717 246.128 595.648 247.034 599.187 248.846C602.725 250.579 605.791 252.981 608.386 256.053C611.059 259.047 613.104 262.434 614.519 266.215C616.013 269.996 616.76 273.935 616.76 278.031C616.76 283.702 615.581 288.98 613.222 293.864C610.863 298.669 607.56 302.528 603.315 305.443C599.147 308.358 594.272 309.815 588.69 309.815ZM587.274 304.498C590.891 304.498 594.115 303.749 596.946 302.253C599.855 300.756 602.332 298.747 604.376 296.227C606.42 293.706 607.993 290.87 609.094 287.719C610.195 284.569 610.745 281.339 610.745 278.031C610.745 274.486 610.116 271.138 608.858 267.987C607.6 264.758 605.831 261.922 603.55 259.48C601.349 257.038 598.754 255.108 595.766 253.69C592.857 252.194 589.673 251.445 586.213 251.445C584.09 251.445 581.81 251.879 579.372 252.745C577.013 253.611 574.733 254.832 572.532 256.408C570.409 257.983 568.639 259.795 567.224 261.843C565.809 263.812 564.944 265.86 564.629 267.987V288.192C566.045 291.185 567.853 293.942 570.055 296.463C572.335 298.905 574.969 300.874 577.957 302.371C580.945 303.789 584.051 304.498 587.274 304.498Z" fill="black"/>
<path d="M659.963 252.509C654.459 252.666 649.623 254.32 645.456 257.471C641.367 260.543 638.497 264.797 636.846 270.232V308.633H630.949V247.192H636.61V262.316C638.733 257.983 641.564 254.478 645.102 251.8C648.64 249.043 652.375 247.467 656.307 247.073C657.093 246.995 657.801 246.955 658.43 246.955C659.059 246.955 659.57 246.955 659.963 246.955V252.509Z" fill="black"/>
<path d="M694.554 309.815C690.229 309.815 686.219 308.988 682.524 307.334C678.907 305.679 675.762 303.395 673.088 300.48C670.415 297.487 668.331 294.061 666.838 290.201C665.344 286.341 664.597 282.284 664.597 278.031C664.597 273.698 665.344 269.641 666.838 265.86C668.331 262.001 670.415 258.613 673.088 255.699C675.84 252.706 679.025 250.382 682.642 248.728C686.337 246.995 690.308 246.128 694.554 246.128C698.8 246.128 702.731 246.995 706.348 248.728C709.965 250.382 713.15 252.706 715.902 255.699C718.654 258.613 720.776 262.001 722.27 265.86C723.764 269.641 724.511 273.698 724.511 278.031C724.511 282.284 723.764 286.341 722.27 290.201C720.776 294.061 718.654 297.487 715.902 300.48C713.228 303.395 710.044 305.679 706.348 307.334C702.731 308.988 698.8 309.815 694.554 309.815ZM670.494 278.267C670.494 283.072 671.555 287.483 673.678 291.5C675.88 295.439 678.789 298.59 682.406 300.953C686.023 303.316 690.033 304.498 694.436 304.498C698.839 304.498 702.849 303.316 706.466 300.953C710.162 298.511 713.071 295.282 715.194 291.264C717.395 287.168 718.496 282.718 718.496 277.912C718.496 273.107 717.395 268.696 715.194 264.679C713.071 260.662 710.162 257.471 706.466 255.108C702.849 252.666 698.879 251.445 694.554 251.445C690.151 251.445 686.141 252.666 682.524 255.108C678.907 257.55 675.998 260.78 673.796 264.797C671.595 268.814 670.494 273.304 670.494 278.267Z" fill="black"/>
<path d="M733.569 290.91C733.569 287.207 734.67 284.017 736.871 281.339C739.073 278.582 742.1 276.455 745.953 274.959C749.806 273.383 754.248 272.595 759.28 272.595C762.425 272.595 765.689 272.871 769.07 273.422C772.451 273.974 775.478 274.722 778.151 275.667V269.878C778.151 264.206 776.5 259.677 773.198 256.29C769.974 252.903 765.492 251.209 759.752 251.209C756.686 251.209 753.501 251.839 750.199 253.099C746.896 254.36 743.515 256.172 740.056 258.535L737.579 254.281C741.589 251.603 745.442 249.594 749.137 248.255C752.911 246.837 756.646 246.128 760.342 246.128C767.654 246.128 773.433 248.294 777.679 252.627C781.925 256.959 784.048 262.867 784.048 270.35V300.835C784.048 301.78 784.245 302.489 784.638 302.962C785.11 303.434 785.778 303.71 786.643 303.789V308.633C785.935 308.712 785.346 308.751 784.874 308.751C784.402 308.751 784.009 308.751 783.694 308.751C782.2 308.515 781.021 307.885 780.156 306.861C779.37 305.837 778.937 304.695 778.859 303.434V298.59C776.028 302.135 772.372 304.892 767.89 306.861C763.487 308.83 758.848 309.815 753.973 309.815C750.12 309.815 746.621 308.988 743.476 307.334C740.41 305.679 737.972 303.434 736.164 300.599C734.434 297.684 733.569 294.454 733.569 290.91ZM775.792 295.99C776.579 294.966 777.168 293.982 777.561 293.037C777.955 292.091 778.151 291.225 778.151 290.437V280.276C775.321 279.173 772.372 278.346 769.305 277.794C766.239 277.243 763.094 276.967 759.87 276.967C753.737 276.967 748.744 278.188 744.891 280.63C741.117 283.072 739.23 286.38 739.23 290.555C739.23 293.155 739.898 295.557 741.235 297.763C742.572 299.968 744.42 301.741 746.778 303.08C749.216 304.419 752.007 305.089 755.152 305.089C759.556 305.089 763.605 304.261 767.3 302.607C771.075 300.874 773.905 298.669 775.792 295.99Z" fill="black"/>
<path d="M828.054 309.815C823.808 309.815 819.837 308.988 816.141 307.334C812.446 305.601 809.222 303.277 806.47 300.362C803.718 297.369 801.556 293.942 799.983 290.083C798.489 286.223 797.742 282.087 797.742 277.676C797.742 271.768 799.04 266.451 801.635 261.725C804.229 256.999 807.807 253.218 812.367 250.382C816.928 247.546 822.117 246.128 827.936 246.128C833.518 246.128 838.433 247.428 842.678 250.027C846.924 252.548 850.109 256.014 852.232 260.425L846.453 262.316C844.644 258.929 842.049 256.29 838.668 254.399C835.366 252.43 831.71 251.445 827.7 251.445C823.218 251.445 819.169 252.587 815.552 254.872C811.935 257.156 809.026 260.307 806.824 264.324C804.701 268.263 803.64 272.714 803.64 277.676C803.64 282.56 804.74 287.05 806.942 291.146C809.144 295.242 812.053 298.511 815.67 300.953C819.365 303.316 823.415 304.498 827.818 304.498C830.648 304.498 833.4 303.986 836.074 302.962C838.826 301.859 841.185 300.441 843.15 298.708C845.195 296.975 846.531 295.124 847.16 293.155L852.939 294.809C851.917 297.723 850.148 300.323 847.632 302.607C845.116 304.813 842.167 306.585 838.786 307.924C835.484 309.185 831.906 309.815 828.054 309.815Z" fill="black"/>
<path d="M916.383 308.633H910.486V274.368C910.486 266.806 909.189 261.134 906.594 257.353C903.999 253.493 900.225 251.563 895.272 251.563C892.048 251.563 888.824 252.391 885.6 254.045C882.377 255.699 879.585 257.983 877.226 260.898C874.867 263.734 873.177 266.963 872.155 270.587V308.633H866.258V222.379H872.155V261.843C874.671 257.038 878.17 253.218 882.652 250.382C887.133 247.546 891.891 246.128 896.923 246.128C900.382 246.128 903.331 246.758 905.768 248.019C908.206 249.279 910.211 251.091 911.783 253.454C913.356 255.817 914.496 258.653 915.204 261.961C915.99 265.27 916.383 269.051 916.383 273.304V308.633Z" fill="black"/>
<path d="M960.278 309.815C955.953 309.815 951.943 308.988 948.248 307.334C944.552 305.601 941.329 303.277 938.577 300.362C935.903 297.369 933.78 293.942 932.208 290.083C930.714 286.144 929.967 282.009 929.967 277.676C929.967 271.847 931.264 266.569 933.859 261.843C936.454 257.117 940.031 253.336 944.592 250.5C949.152 247.585 954.263 246.128 959.924 246.128C965.743 246.128 970.893 247.585 975.375 250.5C979.856 253.415 983.395 257.274 985.989 262.079C988.663 266.806 989.999 272.005 989.999 277.676C989.999 278.149 989.999 278.621 989.999 279.094C989.999 279.567 989.96 279.961 989.882 280.276H936.1C936.414 284.923 937.712 289.137 939.992 292.918C942.272 296.699 945.181 299.693 948.72 301.898C952.337 304.025 956.268 305.089 960.514 305.089C964.76 305.089 968.77 303.986 972.544 301.78C976.318 299.575 978.952 296.739 980.446 293.273L985.636 294.691C984.456 297.605 982.569 300.205 979.974 302.489C977.458 304.773 974.47 306.585 971.011 307.924C967.63 309.185 964.052 309.815 960.278 309.815ZM935.864 275.667H984.338C984.024 270.862 982.766 266.609 980.564 262.907C978.362 259.204 975.453 256.29 971.836 254.163C968.298 252.036 964.367 250.973 960.042 250.973C955.718 250.973 951.786 252.036 948.248 254.163C944.71 256.29 941.84 259.204 939.638 262.907C937.437 266.609 936.178 270.862 935.864 275.667Z" fill="black"/>
<path d="M1022.32 309.815C1017.44 309.815 1012.92 308.988 1008.75 307.334C1004.59 305.679 1000.93 303.159 997.785 299.771L1000.5 295.636C1003.88 298.866 1007.3 301.229 1010.76 302.725C1014.22 304.143 1017.99 304.852 1022.08 304.852C1027.35 304.852 1031.59 303.749 1034.82 301.544C1038.12 299.338 1039.77 296.266 1039.77 292.328C1039.77 289.649 1038.99 287.601 1037.41 286.183C1035.92 284.687 1033.72 283.505 1030.81 282.639C1027.98 281.693 1024.52 280.709 1020.43 279.685C1016.26 278.582 1012.72 277.44 1009.81 276.258C1006.98 275.077 1004.86 273.541 1003.45 271.65C1002.03 269.76 1001.32 267.2 1001.32 263.97C1001.32 259.953 1002.31 256.644 1004.27 254.045C1006.32 251.367 1009.03 249.397 1012.41 248.137C1015.87 246.798 1019.68 246.128 1023.85 246.128C1028.65 246.128 1032.81 246.916 1036.35 248.491C1039.97 250.067 1042.72 252.154 1044.61 254.754L1041.42 258.535C1039.46 256.014 1036.9 254.163 1033.76 252.981C1030.61 251.721 1027.15 251.091 1023.38 251.091C1020.55 251.091 1017.87 251.485 1015.36 252.272C1012.84 253.06 1010.8 254.36 1009.23 256.172C1007.73 257.905 1006.98 260.268 1006.98 263.261C1006.98 265.624 1007.53 267.475 1008.64 268.814C1009.81 270.153 1011.54 271.256 1013.82 272.123C1016.1 272.91 1018.94 273.777 1022.32 274.722C1027.11 275.904 1031.24 277.125 1034.7 278.385C1038.16 279.645 1040.83 281.3 1042.72 283.348C1044.61 285.317 1045.55 288.113 1045.55 291.737C1045.55 297.33 1043.43 301.741 1039.18 304.97C1034.94 308.2 1029.31 309.815 1022.32 309.815Z" fill="black"/>
<path fill-rule="evenodd" clip-rule="evenodd" d="M335.108 72.9222H73.7628V334.849H335.108V72.9222ZM68.436 67.5812V340.19H340.434V67.5812H68.436Z" fill="black"/>
<path d="M100.451 183.273V99.1202H134.983C138.53 99.1202 141.763 99.8709 144.68 101.372C147.676 102.874 150.278 104.888 152.485 107.417C154.693 109.867 156.388 112.632 157.57 115.714C158.832 118.795 159.463 121.956 159.463 125.196C159.463 129.7 158.438 133.967 156.388 137.997C154.417 141.947 151.657 145.187 148.11 147.716C144.641 150.244 140.501 151.509 135.692 151.509H106.482V183.273H100.451ZM106.482 145.938H135.456C139.161 145.938 142.354 144.95 145.035 142.975C147.715 140.999 149.765 138.431 151.184 135.271C152.603 132.11 153.313 128.752 153.313 125.196C153.313 121.482 152.446 118.084 150.711 115.003C149.056 111.842 146.809 109.313 143.97 107.417C141.211 105.521 138.136 104.572 134.746 104.572H106.482V145.938Z" fill="black"/>
<path d="M274.397 225.232H279.6L315.078 309.385H308.692L296.984 281.65H256.894L245.186 309.385H238.682L274.397 225.232ZM295.329 276.672L276.998 232.581L258.313 276.672H295.329Z" fill="black"/>
</svg>
