<svg fill="none" height="300" viewBox="0 0 300 300" width="300" xmlns="http://www.w3.org/2000/svg"><g fill="#f9c196"><path d="m0 0h300v300h-300z"/><path d="m0 0h300v300h-300z"/><path d="m50 50h200v200h-200z"/></g><path clip-rule="evenodd" d="m246.083 53.9184h-192.1662v192.1636h192.1662zm-196.083-3.9184v200h200v-200z" fill="#000" fill-rule="evenodd"/><path d="m73.5405 134.878v-61.7393h25.3913c2.6092 0 4.9852.5507 7.1302 1.6521 2.203 1.1015 4.116 2.5798 5.739 4.4348 1.624 1.7971 2.87 3.8261 3.74 6.087.927 2.2609 1.391 4.5797 1.391 6.9565 0 3.3044-.754 6.4348-2.261 9.3909-1.449 2.899-3.478 5.276-6.087 7.131-2.551 1.855-5.594 2.782-9.1304 2.782h-21.4783v23.305zm4.4348-27.391h21.3044c2.7243 0 5.0723-.725 7.0433-2.174 1.971-1.45 3.478-3.334 4.522-5.6526 1.043-2.3188 1.565-4.7826 1.565-7.3913 0-2.7246-.638-5.2174-1.913-7.4782-1.217-2.3189-2.87-4.174-4.956-5.5653-2.029-1.3913-4.29-2.0869-6.7831-2.0869h-20.7826z" fill="#000"/><path d="m201.443 165.661h3.826l26.087 61.739h-4.696l-8.609-20.348h-29.478l-8.609 20.348h-4.782zm15.391 37.739-13.478-32.348-13.74 32.348z" fill="#000"/></svg>