<svg width="300" height="300" viewBox="0 0 300 300" fill="none" xmlns="http://www.w3.org/2000/svg">
<rect width="300" height="300" fill="#B4D8E9"/>
<rect width="300" height="300" fill="#B4D8E9"/>
<rect width="200" height="200" transform="translate(50 50)" fill="#B4D8E9"/>
<path fill-rule="evenodd" clip-rule="evenodd" d="M246.083 53.9184H53.9168V246.082H246.083V53.9184ZM50 50V250H250V50H50Z" fill="black"/>
<path d="M73.5405 134.878V73.1387H98.9318C101.541 73.1387 103.917 73.6894 106.062 74.7908C108.265 75.8923 110.178 77.3706 111.801 79.2256C113.425 81.0227 114.671 83.0517 115.541 85.3126C116.468 87.5735 116.932 89.8923 116.932 92.2691C116.932 95.5735 116.178 98.7039 114.671 101.66C113.222 104.559 111.193 106.936 108.584 108.791C106.033 110.646 102.99 111.573 99.4536 111.573H77.9753V134.878H73.5405ZM77.9753 107.487H99.2797C102.004 107.487 104.352 106.762 106.323 105.313C108.294 103.863 109.801 101.979 110.845 99.6604C111.888 97.3416 112.41 94.8778 112.41 92.2691C112.41 89.5445 111.772 87.0517 110.497 84.7909C109.28 82.472 107.627 80.6169 105.541 79.2256C103.512 77.8343 101.251 77.1387 98.7579 77.1387H77.9753V107.487Z" fill="black"/>
<path d="M201.443 165.661H205.269L231.356 227.4H226.66L218.051 207.052H188.573L179.964 227.4H175.182L201.443 165.661ZM216.834 203.4L203.356 171.052L189.616 203.4H216.834Z" fill="black"/>
</svg>
