<?xml version="1.0" encoding="utf-8"?>
<!-- Generator: Adobe Illustrator 25.2.3, SVG Export Plug-In . SVG Version: 6.00 Build 0)  -->
<svg version="1.1" id="Layer_1" xmlns="http://www.w3.org/2000/svg" xmlns:xlink="http://www.w3.org/1999/xlink" x="0px" y="0px"
	 viewBox="0 0 29.9 21.2" style="enable-background:new 0 0 29.9 21.2;" xml:space="preserve">
<style type="text/css">
	.st0{fill:#FFFFFF;}
</style>
<path class="st0" d="M0,0h29.9v12.3c0,1.3-0.3,2.5-0.8,3.5c-0.5,1.1-1.3,2-2.2,2.8c-0.9,0.8-1.9,1.4-3,1.8s-2.2,0.7-3.4,0.7
	c-1.6,0-3.2-0.4-4.6-1.1s-2.6-1.7-3.5-3s-1.3-2.8-1.3-4.5V2.9H0V0z M13.6,2.9v9.5c0,1.2,0.3,2.2,1,3.1c0.6,0.9,1.5,1.5,2.5,2
	s2.2,0.7,3.4,0.7c1.2,0,2.4-0.3,3.4-0.8c1-0.6,1.9-1.3,2.5-2.2c0.6-0.9,0.9-1.9,0.9-3V2.9H13.6z"/>
</svg>
