<svg width="1200" height="675" viewBox="0 0 1200 675" fill="none" xmlns="http://www.w3.org/2000/svg">
<rect width="1200" height="675" fill="#B4D8E9"/>
<path d="M58.2109 198.671V57.6152H116.223C122.183 57.6152 127.613 58.8735 132.514 61.39C137.547 63.9065 141.917 67.2838 145.626 71.5221C149.334 75.628 152.182 80.2636 154.169 85.4291C156.288 90.5945 157.347 95.8924 157.347 101.323C157.347 108.872 155.626 116.024 152.182 122.779C148.871 129.401 144.235 134.832 138.275 139.07C132.447 143.308 125.494 145.427 117.415 145.427H68.3431V198.671H58.2109ZM68.3431 136.09H117.017C123.242 136.09 128.606 134.434 133.11 131.123C137.613 127.812 141.056 123.508 143.44 118.21C145.824 112.912 147.017 107.283 147.017 101.323C147.017 95.0977 145.56 89.4025 142.646 84.237C139.864 78.9392 136.09 74.7009 131.322 71.5221C126.686 68.3434 121.52 66.7541 115.825 66.7541H68.3431V136.09Z" fill="#2C2A29"/>
<path d="M1079.94 477H1088.69L1148.29 618.056H1137.56L1117.89 571.567H1050.54L1030.87 618.056H1019.95L1079.94 477ZM1115.11 563.223L1084.31 489.318L1052.92 563.223H1115.11Z" fill="#2C2A29"/>
</svg>
